<svg id="svg" version="1.1" xmlns="http://www.w3.org/2000/svg" xmlns:xlink="http://www.w3.org/1999/xlink" width="400" height="250.47923322683707" viewBox="0, 0, 400,250.47923322683707"><g id="svgg"><path id="path0" d="M165.500 72.708 C 166.077 72.844,166.781 72.843,167.254 72.705 C 167.915 72.514,167.757 72.477,166.291 72.479 C 164.699 72.481,164.626 72.502,165.500 72.708 M286.967 72.584 C 288.399 72.763,340.351 72.802,340.351 72.625 C 340.351 72.518,328.199 72.448,313.346 72.469 C 298.493 72.489,286.623 72.541,286.967 72.584 M342.857 73.798 C 342.857 74.018,344.632 74.750,344.788 74.594 C 344.875 74.507,344.772 74.436,344.559 74.436 C 344.346 74.436,344.031 74.267,343.860 74.060 C 343.574 73.716,342.857 73.529,342.857 73.798 M345.301 75.243 C 345.611 75.393,345.865 75.611,345.865 75.728 C 345.865 75.844,346.033 75.940,346.238 75.940 C 346.550 75.940,346.541 75.858,346.182 75.439 C 345.946 75.163,345.525 74.945,345.245 74.954 C 344.765 74.970,344.769 74.987,345.301 75.243 M347.619 77.162 C 347.619 77.283,347.788 77.523,347.995 77.694 C 348.202 77.866,348.371 78.113,348.371 78.244 C 348.371 78.375,348.512 78.639,348.684 78.831 C 349.461 79.697,349.624 79.953,349.624 80.300 C 349.624 80.505,349.737 80.742,349.875 80.827 C 350.013 80.912,350.125 81.201,350.125 81.468 C 350.125 81.736,350.238 81.955,350.376 81.955 C 350.514 81.955,350.627 81.673,350.627 81.328 C 350.627 80.984,350.526 80.702,350.403 80.702 C 350.280 80.702,350.109 80.420,350.022 80.075 C 349.936 79.731,349.755 79.449,349.619 79.449 C 349.484 79.449,349.373 79.328,349.373 79.180 C 349.373 79.032,349.232 78.754,349.060 78.562 C 348.316 77.733,348.120 77.449,348.120 77.204 C 348.120 77.060,348.008 76.942,347.870 76.942 C 347.732 76.942,347.619 77.041,347.619 77.162 M170.531 77.924 C 170.280 78.174,170.526 78.550,172.210 80.503 C 175.692 84.539,179.352 90.164,181.649 95.009 C 182.701 97.230,183.253 98.557,184.607 102.130 C 184.711 102.406,184.936 103.083,185.106 103.634 C 186.375 107.751,186.253 107.264,187.180 111.905 C 188.321 117.617,188.759 125.121,188.241 130.075 C 188.090 131.523,187.852 133.778,187.713 135.088 C 187.573 136.397,187.243 138.315,186.979 139.348 C 186.715 140.382,186.430 141.566,186.345 141.980 C 186.123 143.065,184.715 147.612,184.328 148.496 C 182.965 151.604,182.456 152.895,182.456 153.242 C 182.456 153.463,182.174 154.091,181.830 154.637 C 181.485 155.182,181.203 155.762,181.203 155.924 C 181.203 156.086,180.939 156.567,180.616 156.994 C 179.821 158.044,178.697 160.093,178.697 160.493 C 178.697 160.671,178.415 160.968,178.070 161.153 C 177.700 161.351,177.444 161.709,177.444 162.027 C 177.444 162.324,176.881 163.291,176.193 164.178 C 175.505 165.064,174.941 165.912,174.940 166.062 C 174.938 166.213,174.543 166.695,174.060 167.134 C 173.578 167.573,173.183 168.024,173.183 168.136 C 173.183 168.248,172.676 168.837,172.057 169.446 C 171.438 170.054,170.930 170.645,170.929 170.759 C 170.928 170.873,170.589 171.304,170.175 171.718 C 169.762 172.131,169.418 172.658,169.411 172.889 C 169.404 173.120,168.606 173.929,167.639 174.687 C 166.672 175.445,165.655 176.375,165.379 176.754 C 165.104 177.133,164.677 177.444,164.431 177.444 C 164.184 177.444,163.679 177.726,163.307 178.070 C 162.935 178.415,162.515 178.697,162.374 178.697 C 162.232 178.697,161.804 179.009,161.423 179.391 C 160.460 180.354,155.024 183.960,154.535 183.960 C 154.315 183.960,154.135 184.106,154.135 184.284 C 154.135 184.463,153.628 184.818,153.008 185.074 C 152.387 185.330,151.880 185.635,151.880 185.752 C 151.880 186.114,153.054 185.987,153.383 185.589 C 153.555 185.382,153.851 185.213,154.041 185.213 C 154.231 185.213,154.386 185.113,154.386 184.992 C 154.386 184.870,154.583 184.704,154.825 184.623 C 155.300 184.463,156.190 183.928,156.391 183.680 C 156.460 183.596,156.770 183.447,157.080 183.350 C 157.390 183.253,157.644 183.069,157.644 182.941 C 157.644 182.812,157.813 182.707,158.020 182.707 C 158.227 182.707,158.396 182.620,158.396 182.513 C 158.396 182.407,158.791 182.107,159.273 181.847 C 159.756 181.587,160.150 181.297,160.150 181.203 C 160.150 181.108,160.714 180.647,161.403 180.177 C 162.092 179.708,162.656 179.239,162.656 179.135 C 162.656 179.032,162.826 178.947,163.033 178.947 C 163.239 178.947,163.409 178.783,163.409 178.582 C 163.409 178.282,163.853 178.225,165.852 178.268 C 167.196 178.297,170.777 178.278,173.810 178.225 C 179.543 178.125,179.531 178.099,173.496 177.562 C 171.673 177.400,170.949 176.942,172.515 176.942 C 173.525 176.942,173.741 176.765,173.433 176.190 C 173.127 175.618,173.644 174.489,174.310 174.274 C 174.585 174.185,174.927 173.953,175.069 173.759 C 175.687 172.914,220.943 172.712,310.124 173.156 C 334.277 173.276,340.830 173.243,341.418 172.995 C 341.828 172.823,342.321 172.682,342.513 172.682 C 343.002 172.682,344.484 171.677,344.760 171.160 C 344.885 170.924,345.326 170.183,345.739 169.514 L 346.491 168.296 346.485 125.682 L 346.479 83.068 345.761 81.844 C 344.775 80.162,343.933 79.264,342.607 78.483 L 341.479 77.820 256.057 77.820 C 209.075 77.820,170.588 77.867,170.531 77.924 M350.900 124.909 C 350.863 161.123,350.808 166.806,350.491 167.258 C 350.290 167.546,350.125 168.032,350.125 168.340 C 350.125 169.059,349.683 170.055,348.829 171.258 C 348.455 171.785,348.212 172.380,348.289 172.580 C 348.486 173.092,348.872 172.709,349.624 171.259 C 349.969 170.594,350.335 170.013,350.439 169.967 C 350.542 169.921,350.627 169.554,350.627 169.152 C 350.627 168.750,350.725 168.421,350.846 168.421 C 351.408 168.421,351.713 85.789,351.157 83.835 C 351.037 83.411,350.925 101.346,350.900 124.909 M283.584 88.727 C 286.061 89.007,286.978 89.226,289.599 90.167 C 293.324 91.505,293.253 91.213,290.957 95.745 C 288.988 99.630,289.124 99.515,287.652 98.561 C 283.693 95.997,278.697 96.724,278.697 99.864 C 278.697 101.620,279.502 102.188,284.222 103.758 C 291.687 106.242,294.486 109.341,294.486 115.121 C 294.486 126.512,281.344 131.786,269.173 125.280 C 266.301 123.745,266.367 124.033,268.138 120.780 C 268.983 119.228,269.872 117.530,270.113 117.006 C 270.649 115.841,271.911 115.989,272.935 117.336 C 273.215 117.704,275.773 118.846,277.082 119.187 C 281.055 120.222,284.222 118.596,283.868 115.702 C 283.648 113.900,282.790 113.345,277.345 111.478 C 270.250 109.046,268.310 106.767,268.301 100.852 C 268.298 98.893,268.411 97.327,268.583 96.968 C 268.741 96.637,269.162 95.746,269.518 94.987 C 271.078 91.673,274.556 89.339,278.822 88.742 C 280.953 88.445,281.078 88.444,283.584 88.727 M221.748 93.797 C 221.786 96.106,221.786 98.018,221.748 98.046 C 221.710 98.073,219.142 98.158,216.040 98.234 L 210.401 98.371 210.327 100.627 C 210.206 104.346,209.666 104.010,215.767 104.010 C 221.934 104.010,221.303 103.514,221.303 108.366 C 221.303 112.907,221.828 112.531,215.489 112.531 L 210.276 112.531 210.276 115.414 C 210.276 117.980,210.324 118.299,210.714 118.326 C 210.956 118.343,212.919 118.333,215.078 118.305 C 217.237 118.277,219.636 118.333,220.410 118.430 L 221.816 118.606 221.748 122.774 L 221.679 126.942 211.307 127.008 C 203.859 127.055,200.839 126.993,200.593 126.789 C 200.118 126.395,200.080 90.246,200.554 89.772 C 200.784 89.542,203.380 89.484,211.268 89.534 L 221.679 89.599 221.748 93.797 M249.891 89.733 C 250.158 89.876,250.376 90.113,250.376 90.259 C 250.376 90.406,250.534 90.881,250.727 91.316 C 251.064 92.073,256.102 105.151,256.797 107.070 C 256.982 107.581,258.720 112.138,260.659 117.196 C 262.598 122.254,264.126 126.544,264.055 126.730 C 263.952 126.998,262.884 127.068,258.912 127.068 L 253.898 127.068 253.558 126.378 C 253.371 125.999,252.896 124.674,252.501 123.434 C 252.107 122.193,251.679 121.037,251.551 120.865 C 251.338 120.579,237.845 120.358,237.845 120.640 C 237.845 120.689,237.557 121.506,237.206 122.457 C 236.854 123.408,236.391 124.693,236.176 125.313 C 235.541 127.145,235.799 127.068,230.316 127.068 C 224.358 127.068,224.670 127.433,226.558 122.682 C 226.667 122.406,226.929 121.729,227.140 121.178 C 228.044 118.813,230.014 113.690,230.320 112.907 C 230.428 112.632,230.699 111.927,230.922 111.341 C 231.146 110.755,231.511 109.796,231.734 109.211 C 231.958 108.625,232.228 107.920,232.336 107.644 C 232.443 107.368,232.672 106.748,232.844 106.266 C 233.017 105.783,233.295 105.050,233.462 104.637 C 233.778 103.856,234.506 101.998,234.837 101.128 C 234.942 100.852,235.198 100.175,235.406 99.624 C 235.750 98.713,236.236 97.449,237.477 94.236 C 237.717 93.615,238.182 92.380,238.511 91.490 C 238.839 90.601,239.247 89.785,239.416 89.677 C 239.885 89.380,249.325 89.430,249.891 89.733 M307.441 89.671 C 307.605 89.775,308.005 90.253,308.331 90.732 C 308.656 91.212,309.757 92.845,310.778 94.361 C 311.798 95.877,312.701 97.174,312.784 97.243 C 312.866 97.312,313.191 97.791,313.505 98.308 C 314.276 99.577,314.527 99.506,315.714 97.682 C 317.922 94.291,320.871 90.084,321.250 89.787 C 321.848 89.318,332.546 89.339,332.726 89.809 C 332.797 89.994,332.165 91.094,331.321 92.253 C 330.477 93.412,327.455 97.632,324.605 101.629 L 319.424 108.897 319.298 117.920 L 319.173 126.942 314.429 127.011 C 310.802 127.063,309.638 127.004,309.483 126.760 C 309.372 126.585,309.279 122.524,309.277 117.737 L 309.273 109.032 307.911 107.085 C 307.161 106.014,306.174 104.598,305.718 103.938 C 305.261 103.279,304.625 102.433,304.305 102.059 C 303.984 101.685,303.646 101.209,303.553 101.001 C 303.460 100.794,301.710 98.278,299.666 95.410 C 297.466 92.324,296.005 90.048,296.086 89.834 C 296.238 89.438,306.835 89.286,307.441 89.671 M244.255 102.297 C 243.833 103.627,242.983 106.071,242.089 108.521 C 241.511 110.107,240.983 111.714,240.916 112.093 L 240.795 112.782 244.207 112.824 C 246.084 112.847,247.816 112.875,248.058 112.886 C 248.599 112.912,248.592 112.090,248.038 110.652 C 247.619 109.563,245.758 104.414,245.282 103.027 C 244.971 102.119,244.433 101.737,244.255 102.297 M172.239 113.534 C 172.239 114.016,172.290 114.214,172.353 113.972 C 172.416 113.731,172.416 113.336,172.353 113.095 C 172.290 112.854,172.239 113.051,172.239 113.534 M172.745 116.917 C 172.748 117.469,172.799 117.665,172.859 117.353 C 172.919 117.041,172.917 116.590,172.854 116.350 C 172.791 116.111,172.742 116.366,172.745 116.917 M173.539 125.564 C 173.539 128.390,173.576 129.546,173.621 128.133 C 173.665 126.720,173.665 124.408,173.621 122.995 C 173.576 121.582,173.539 122.738,173.539 125.564 M172.766 134.336 C 172.766 135.370,172.810 135.793,172.864 135.276 C 172.918 134.759,172.918 133.913,172.864 133.396 C 172.810 132.879,172.766 133.302,172.766 134.336 M238.241 134.111 C 239.714 134.386,240.167 134.546,242.380 135.574 C 249.059 138.677,251.892 147.478,248.424 154.356 C 243.556 164.012,227.690 164.437,222.195 155.059 C 218.706 149.106,220.269 140.885,225.641 136.930 C 226.988 135.939,227.762 135.513,229.699 134.701 C 231.562 133.919,235.687 133.635,238.241 134.111 M307.268 134.186 C 309.432 134.654,312.063 135.634,312.215 136.029 C 312.373 136.441,310.007 141.123,309.552 141.299 C 309.361 141.373,309.023 141.306,308.801 141.150 C 306.061 139.229,302.256 139.672,302.256 141.910 C 302.256 142.889,303.161 143.669,304.938 144.223 C 312.137 146.468,314.625 149.800,313.240 155.340 C 311.699 161.502,303.121 163.888,295.785 160.196 C 293.552 159.072,293.558 159.106,295.022 156.251 C 296.671 153.034,296.458 153.161,298.291 154.304 C 301.765 156.470,305.065 156.361,305.876 154.055 C 306.438 152.457,305.476 151.612,301.629 150.323 C 296.548 148.621,294.980 146.958,294.783 143.062 C 294.452 136.527,299.964 132.609,307.268 134.186 M218.775 134.936 C 218.965 135.165,219.041 136.183,218.994 137.881 L 218.922 140.476 216.165 140.602 L 213.409 140.727 213.283 150.877 L 213.158 161.028 209.649 161.028 L 206.140 161.028 206.015 150.877 L 205.890 140.727 203.133 140.602 L 200.376 140.476 200.304 137.881 C 200.204 134.261,199.281 134.586,209.649 134.586 C 216.905 134.586,218.537 134.649,218.775 134.936 M273.140 134.911 C 273.320 135.127,273.415 138.135,273.427 143.954 C 273.450 155.057,273.612 155.494,277.715 155.508 C 282.002 155.522,282.231 154.924,282.434 143.233 L 282.581 134.712 285.965 134.712 L 289.348 134.712 289.414 143.847 C 289.470 151.532,289.418 153.204,289.087 154.374 C 287.549 159.810,284.546 161.782,277.820 161.776 C 270.454 161.768,267.322 159.358,266.265 152.882 C 265.909 150.706,265.745 135.822,266.067 134.983 C 266.270 134.454,272.706 134.388,273.140 134.911 M332.964 135.150 C 333.072 135.584,332.996 139.264,332.855 140.407 C 332.842 140.507,331.056 140.620,328.885 140.658 L 324.937 140.727 324.864 142.662 C 324.777 144.983,324.499 144.838,329.198 144.926 L 332.456 144.987 332.456 147.870 L 332.456 150.752 328.624 150.821 L 324.792 150.890 324.865 152.951 L 324.937 155.013 328.691 155.082 C 330.756 155.121,332.537 155.244,332.650 155.357 C 332.816 155.523,332.938 158.775,332.852 160.718 C 332.833 161.132,332.347 161.156,325.251 161.094 L 317.669 161.028 317.600 148.371 C 317.562 141.410,317.592 135.461,317.667 135.150 L 317.804 134.586 325.313 134.586 L 332.823 134.586 332.964 135.150 M172.244 137.218 C 172.246 137.769,172.298 137.965,172.358 137.654 C 172.418 137.342,172.415 136.891,172.353 136.651 C 172.290 136.412,172.241 136.667,172.244 137.218 M171.474 139.737 C 171.449 140.295,171.329 140.859,171.208 140.990 C 170.856 141.371,170.616 143.108,170.916 143.108 C 171.060 143.108,171.178 142.792,171.178 142.406 C 171.178 142.020,171.298 141.585,171.444 141.438 C 171.590 141.292,171.667 140.621,171.614 139.947 C 171.524 138.786,171.517 138.775,171.474 139.737 M232.374 141.314 C 228.453 142.713,226.648 147.633,228.694 151.346 C 232.204 157.717,242.363 155.234,242.353 148.008 C 242.346 142.851,237.389 139.525,232.374 141.314 M170.175 143.737 C 170.175 144.100,170.006 144.566,169.799 144.773 C 169.376 145.196,169.291 146.115,169.674 146.115 C 169.812 146.115,169.926 146.031,169.928 145.927 C 169.929 145.824,170.092 145.206,170.290 144.555 C 170.507 143.840,170.555 143.313,170.412 143.225 C 170.282 143.144,170.175 143.375,170.175 143.737 M168.170 148.496 C 168.170 148.841,168.270 149.123,168.392 149.123 C 168.514 149.123,168.667 148.841,168.733 148.496 C 168.813 148.076,168.740 147.870,168.512 147.870 C 168.315 147.870,168.170 148.135,168.170 148.496 M167.328 150.212 C 167.071 150.692,166.907 151.223,166.963 151.391 C 167.120 151.860,167.963 150.424,167.873 149.842 C 167.808 149.424,167.715 149.487,167.328 150.212 M165.664 153.143 C 165.664 153.389,165.468 153.673,164.724 154.502 C 164.552 154.694,164.411 154.980,164.411 155.138 C 164.411 155.295,164.270 155.581,164.098 155.774 C 163.307 156.656,163.158 156.901,163.159 157.320 C 163.159 157.618,163.339 157.474,163.692 156.892 C 163.984 156.410,164.310 155.959,164.415 155.890 C 164.521 155.821,164.856 155.285,165.161 154.698 C 165.466 154.111,165.817 153.569,165.941 153.493 C 166.244 153.305,166.226 152.882,165.915 152.882 C 165.777 152.882,165.664 153.000,165.664 153.143 M162.330 158.003 C 162.081 158.192,161.860 158.583,161.838 158.872 C 161.816 159.162,161.700 159.398,161.581 159.398 C 161.317 159.398,159.398 161.427,159.398 161.706 C 159.398 161.815,159.229 161.905,159.023 161.905 C 158.816 161.905,158.647 162.018,158.647 162.155 C 158.647 162.368,156.000 165.163,155.799 165.163 C 155.546 165.163,152.816 167.937,152.943 168.065 C 153.115 168.236,155.126 166.665,155.133 166.353 C 155.136 166.250,155.307 166.165,155.514 166.165 C 155.721 166.165,155.890 166.077,155.890 165.969 C 155.890 165.861,157.235 164.407,158.879 162.737 C 161.210 160.370,163.381 157.590,162.850 157.652 C 162.812 157.656,162.578 157.814,162.330 158.003 M151.790 168.546 C 151.583 168.753,151.345 168.922,151.260 168.922 C 151.175 168.922,150.802 169.204,150.430 169.549 C 150.059 169.893,149.612 170.175,149.439 170.175 C 149.265 170.175,149.123 170.288,149.123 170.426 C 149.123 170.875,149.786 170.691,150.478 170.050 C 150.850 169.705,151.487 169.251,151.893 169.041 C 152.299 168.831,152.632 168.549,152.632 168.415 C 152.632 168.053,152.218 168.118,151.790 168.546 M147.619 171.554 C 147.295 171.898,146.853 172.183,146.636 172.186 C 146.081 172.194,144.853 173.170,145.388 173.177 C 145.871 173.184,147.368 172.463,147.368 172.223 C 147.368 172.129,147.707 171.902,148.120 171.719 C 148.893 171.378,149.131 170.927,148.540 170.927 C 148.357 170.927,147.943 171.209,147.619 171.554 M347.619 172.896 C 347.619 173.179,346.447 174.436,346.183 174.436 C 346.069 174.436,345.606 174.774,345.153 175.188 C 344.700 175.602,344.183 175.940,344.004 175.940 C 343.825 175.940,343.282 176.209,342.796 176.539 C 341.441 177.458,340.820 177.487,319.549 177.605 C 308.590 177.665,285.019 177.804,267.168 177.914 L 234.712 178.112 287.517 178.154 C 322.494 178.181,340.374 178.111,340.476 177.945 C 340.561 177.807,340.897 177.694,341.222 177.694 C 342.030 177.694,342.633 177.438,342.465 177.167 C 342.389 177.043,342.606 176.942,342.947 176.942 C 343.599 176.942,345.108 176.200,345.111 175.877 C 345.112 175.774,345.319 175.689,345.572 175.689 C 345.824 175.689,346.181 175.407,346.366 175.063 C 346.550 174.718,346.834 174.436,346.996 174.436 C 347.414 174.436,348.120 173.598,348.120 173.101 C 348.120 172.870,348.008 172.682,347.870 172.682 C 347.732 172.682,347.619 172.778,347.619 172.896 M144.158 173.377 C 143.840 173.430,143.622 173.597,143.673 173.751 C 143.818 174.185,144.213 174.223,144.722 173.851 C 145.259 173.459,144.999 173.240,144.158 173.377 M140.351 175.218 C 139.479 175.686,139.478 175.688,140.163 175.689 C 140.542 175.689,140.852 175.576,140.852 175.439 C 140.852 175.301,141.190 175.188,141.604 175.188 C 142.018 175.188,142.356 175.075,142.356 174.937 C 142.356 174.552,141.325 174.696,140.351 175.218 M137.918 176.217 C 137.765 176.370,137.263 176.584,136.803 176.693 L 135.965 176.891 136.893 176.917 C 137.861 176.943,139.098 176.513,139.098 176.150 C 139.098 175.844,138.243 175.893,137.918 176.217 M101.629 177.444 C 101.537 177.593,101.811 177.687,102.304 177.677 C 102.995 177.662,103.049 177.623,102.632 177.444 C 101.952 177.151,101.810 177.151,101.629 177.444 M134.085 177.569 C 133.901 177.790,133.348 177.946,132.739 177.949 C 131.993 177.951,131.808 178.018,132.078 178.189 C 132.284 178.319,132.735 178.362,133.081 178.285 C 134.942 177.871,135.589 177.651,135.589 177.434 C 135.589 177.051,134.429 177.155,134.085 177.569 M103.697 178.122 C 104.007 178.181,104.514 178.181,104.825 178.122 C 105.135 178.062,104.881 178.013,104.261 178.013 C 103.640 178.013,103.387 178.062,103.697 178.122 M129.135 178.623 C 128.825 178.683,128.571 178.837,128.571 178.965 C 128.571 179.093,127.650 179.198,126.525 179.198 C 125.399 179.198,124.555 179.275,124.650 179.370 C 124.905 179.625,127.698 179.512,129.699 179.166 C 131.114 178.922,131.332 178.828,130.827 178.680 C 130.125 178.474,129.941 178.468,129.135 178.623 M106.758 178.971 C 107.462 179.109,107.969 179.099,108.124 178.944 C 108.286 178.782,107.901 178.706,107.005 178.724 L 105.639 178.752 106.758 178.971 M75.006 179.699 C 75.356 179.975,75.731 180.201,75.839 180.201 C 75.946 180.201,75.792 179.975,75.496 179.699 C 75.200 179.424,74.826 179.198,74.663 179.198 C 74.501 179.198,74.655 179.424,75.006 179.699 M109.468 179.382 C 110.057 179.435,110.960 179.434,111.473 179.380 C 111.986 179.326,111.504 179.283,110.401 179.284 C 109.298 179.285,108.878 179.329,109.468 179.382 M115.553 180.185 C 117.147 180.269,119.515 180.268,120.817 180.184 C 122.473 180.077,121.605 180.031,117.920 180.032 C 113.656 180.032,113.207 180.061,115.553 180.185 M79.010 182.629 C 79.251 182.692,79.449 182.848,79.449 182.976 C 79.449 183.104,79.639 183.208,79.872 183.208 C 80.242 183.208,80.234 183.161,79.810 182.840 C 79.542 182.638,79.154 182.482,78.947 182.493 C 78.684 182.508,78.703 182.549,79.010 182.629 M150.260 186.426 C 149.851 186.655,149.364 186.983,149.177 187.155 C 148.989 187.328,148.732 187.469,148.605 187.469 C 148.477 187.469,147.518 187.863,146.474 188.346 C 145.430 188.828,144.469 189.223,144.339 189.223 C 144.210 189.223,143.908 189.321,143.668 189.440 C 143.061 189.743,141.613 190.243,140.777 190.438 C 140.391 190.528,140.084 190.714,140.096 190.852 C 140.107 190.990,139.634 191.175,139.043 191.264 C 135.088 191.859,134.128 192.231,136.550 192.231 C 137.413 192.231,138.095 192.120,138.095 191.980 C 138.095 191.842,138.412 191.729,138.799 191.729 C 139.186 191.729,139.722 191.564,139.990 191.361 C 140.257 191.159,140.836 190.990,141.276 190.985 C 141.716 190.981,142.136 190.879,142.211 190.759 C 142.285 190.639,142.694 190.471,143.119 190.386 C 143.549 190.300,143.823 190.119,143.736 189.978 C 143.645 189.831,143.865 189.724,144.262 189.724 C 145.031 189.724,146.867 188.984,146.867 188.674 C 146.867 188.562,147.084 188.471,147.348 188.471 C 147.863 188.471,149.444 187.718,149.582 187.406 C 149.628 187.303,149.802 187.218,149.968 187.218 C 150.453 187.218,152.126 186.295,151.953 186.122 C 151.698 185.867,151.053 185.982,150.260 186.426 M86.341 186.967 C 86.426 187.105,86.721 187.218,86.997 187.218 C 87.273 187.218,87.429 187.105,87.343 186.967 C 87.258 186.830,86.963 186.717,86.687 186.717 C 86.412 186.717,86.256 186.830,86.341 186.967 M88.847 188.221 C 88.932 188.358,89.228 188.471,89.503 188.471 C 89.779 188.471,89.935 188.358,89.850 188.221 C 89.764 188.083,89.469 187.970,89.193 187.970 C 88.918 187.970,88.762 188.083,88.847 188.221 M90.789 189.013 C 91.169 189.152,91.479 189.368,91.479 189.495 C 91.479 189.621,91.845 189.717,92.293 189.707 C 93.095 189.691,93.098 189.686,92.481 189.431 C 92.137 189.288,91.659 189.070,91.419 188.947 C 91.180 188.823,90.785 188.731,90.542 188.742 C 90.260 188.754,90.349 188.852,90.789 189.013 M93.484 190.226 C 93.690 190.359,94.104 190.470,94.403 190.472 C 94.701 190.474,94.986 190.598,95.036 190.747 C 95.086 190.897,95.514 190.976,95.997 190.923 L 96.867 190.829 96.115 190.638 C 95.702 190.532,95.168 190.340,94.928 190.210 C 94.318 189.880,92.972 189.895,93.484 190.226 M97.118 191.479 C 97.203 191.617,97.611 191.729,98.025 191.729 C 98.462 191.729,98.712 191.625,98.622 191.479 C 98.536 191.341,98.128 191.228,97.715 191.228 C 97.277 191.228,97.028 191.333,97.118 191.479 M98.997 191.980 C 98.997 192.118,99.477 192.229,100.063 192.227 C 100.843 192.224,101.027 192.158,100.752 191.980 C 100.257 191.660,98.997 191.660,98.997 191.980 M101.880 192.732 C 101.965 192.870,102.416 192.982,102.882 192.982 C 103.348 192.982,103.800 193.095,103.885 193.233 C 103.970 193.371,104.794 193.472,105.717 193.458 C 107.153 193.436,107.268 193.403,106.516 193.231 C 103.090 192.446,101.604 192.286,101.880 192.732 M132.206 192.732 C 131.930 192.850,131.310 192.957,130.827 192.969 C 128.916 193.015,129.185 193.476,131.126 193.480 C 132.186 193.482,133.123 193.371,133.208 193.233 C 133.293 193.095,133.744 192.982,134.211 192.982 C 134.677 192.982,135.128 192.870,135.213 192.732 C 135.404 192.423,132.925 192.423,132.206 192.732 M108.521 193.956 C 108.521 194.763,128.167 194.738,128.947 193.930 C 129.120 193.751,128.106 193.735,125.689 193.879 C 121.184 194.146,115.764 194.161,111.717 193.918 C 109.808 193.804,108.521 193.819,108.521 193.956 " stroke="none" fill="#095ca1" fill-rule="evenodd"></path><path id="path1" d="M0.000 125.313 L 0.000 250.627 200.000 250.627 L 400.000 250.627 400.000 125.313 L 400.000 0.000 200.000 0.000 L 0.000 0.000 0.000 125.313 M127.694 55.759 C 132.700 56.447,138.132 57.759,142.361 59.303 C 143.260 59.631,144.075 59.900,144.171 59.900 C 144.423 59.900,146.776 60.973,150.271 62.683 C 153.482 64.253,159.029 67.627,160.890 69.142 C 161.504 69.641,162.518 70.417,163.145 70.865 L 164.284 71.679 251.643 71.679 L 339.002 71.679 341.118 72.211 C 344.665 73.103,348.292 75.615,349.719 78.168 C 352.370 82.910,352.132 78.234,352.121 125.271 C 352.111 171.817,352.305 167.927,349.782 172.350 C 348.774 174.117,345.626 176.742,343.400 177.670 C 340.169 179.018,345.247 178.947,251.232 178.947 L 164.161 178.947 162.720 180.082 C 159.428 182.674,152.480 186.989,149.123 188.527 C 146.586 189.689,145.393 190.197,144.486 190.498 C 143.935 190.681,143.371 190.908,143.233 191.001 C 142.934 191.203,136.735 193.134,135.840 193.304 C 135.495 193.369,134.142 193.656,132.832 193.942 C 124.348 195.793,111.797 195.751,103.634 193.844 C 102.669 193.618,101.429 193.345,100.877 193.236 C 99.640 192.993,94.938 191.554,93.883 191.097 C 93.457 190.912,92.206 190.403,91.103 189.964 C 78.373 184.903,66.030 174.507,58.331 162.359 C 57.116 160.442,54.368 155.141,53.419 152.882 C 53.101 152.124,52.739 151.278,52.616 151.003 C 51.939 149.493,50.018 143.397,49.653 141.602 C 48.189 134.396,47.866 131.476,47.868 125.461 C 47.870 121.183,48.402 114.263,48.854 112.657 C 48.970 112.243,49.204 111.228,49.373 110.401 C 50.127 106.709,51.819 101.347,53.297 97.966 C 54.631 94.912,57.632 89.201,58.296 88.451 C 58.489 88.234,58.647 87.970,58.647 87.864 C 58.647 87.094,64.152 80.173,67.589 76.623 C 70.288 73.836,77.463 67.669,78.008 67.669 C 78.073 67.669,78.959 67.122,79.978 66.453 C 83.458 64.166,91.866 59.897,92.884 59.900 C 93.007 59.901,93.784 59.630,94.612 59.298 C 99.318 57.410,105.240 56.165,113.659 55.292 C 115.831 55.067,124.839 55.366,127.694 55.759 M110.401 72.069 C 109.160 72.257,107.751 72.523,107.268 72.661 C 106.786 72.798,105.771 73.044,105.013 73.208 C 102.832 73.678,99.003 74.980,96.491 76.105 C 94.862 76.835,91.139 78.748,90.492 79.187 C 90.139 79.427,88.947 80.223,87.845 80.956 C 84.226 83.361,80.286 86.882,77.459 90.237 C 76.709 91.127,75.970 91.967,75.817 92.105 C 75.664 92.243,74.754 93.479,73.797 94.852 C 63.374 109.791,61.273 129.494,68.356 145.865 C 72.040 154.379,76.630 160.541,83.848 166.667 C 85.825 168.344,91.919 172.431,92.443 172.431 C 92.538 172.431,93.008 172.693,93.488 173.013 C 95.114 174.097,101.710 176.635,104.637 177.303 C 105.602 177.523,106.786 177.807,107.268 177.935 C 109.853 178.617,112.501 178.822,118.672 178.816 C 125.319 178.810,125.826 178.760,131.078 177.586 C 134.005 176.931,134.208 176.877,134.461 176.687 C 134.599 176.584,135.103 176.415,135.581 176.313 C 136.059 176.210,136.623 176.034,136.834 175.921 C 137.045 175.808,137.842 175.495,138.606 175.225 C 141.942 174.044,147.857 170.662,151.790 167.686 C 153.964 166.041,159.590 160.569,160.590 159.127 C 160.821 158.794,161.218 158.296,161.473 158.020 C 161.727 157.744,162.464 156.729,163.111 155.764 C 163.757 154.799,164.370 153.972,164.474 153.926 C 164.577 153.881,164.662 153.737,164.662 153.608 C 164.662 153.479,164.948 152.920,165.298 152.365 C 166.042 151.187,168.421 146.532,168.421 146.255 C 168.421 146.151,168.586 145.710,168.788 145.276 C 169.256 144.270,170.887 139.288,171.180 137.970 C 172.004 134.268,172.190 133.010,172.464 129.263 C 172.802 124.637,172.526 118.958,171.804 115.664 C 171.592 114.699,171.306 113.346,171.168 112.657 C 170.380 108.719,167.992 102.770,165.607 98.805 C 165.087 97.941,164.662 97.177,164.662 97.106 C 164.662 96.051,157.701 87.972,153.981 84.709 C 142.519 74.657,125.640 69.761,110.401 72.069 M125.153 81.731 C 125.579 82.339,125.475 90.180,125.021 91.669 C 124.568 93.152,122.584 93.355,122.538 91.923 C 122.268 83.355,123.347 79.152,125.153 81.731 M113.044 87.168 C 113.796 87.967,114.862 89.175,115.414 89.852 C 115.965 90.529,116.713 91.369,117.076 91.719 C 118.642 93.230,118.805 94.787,117.435 95.131 C 116.640 95.331,115.800 94.748,114.581 93.152 C 114.036 92.439,113.376 91.629,113.115 91.353 C 110.404 88.493,109.774 87.676,109.774 87.020 C 109.774 85.180,111.238 85.246,113.044 87.168 M137.701 87.612 C 138.601 88.512,138.235 89.048,134.308 92.582 C 129.960 96.495,128.613 96.957,128.579 94.549 C 128.571 93.930,128.692 93.793,131.188 91.604 C 132.131 90.777,133.404 89.649,134.017 89.098 C 135.979 87.333,137.008 86.918,137.701 87.612 M277.694 89.395 C 271.943 90.738,268.556 95.100,268.623 101.078 C 268.665 104.735,270.655 108.425,272.986 109.165 C 273.232 109.243,273.434 109.412,273.434 109.541 C 273.434 109.669,273.599 109.774,273.801 109.774 C 274.003 109.774,274.595 109.959,275.117 110.185 C 276.565 110.812,276.956 110.957,278.446 111.419 C 283.062 112.851,284.942 114.591,284.363 116.896 C 283.420 120.654,277.205 120.891,272.352 117.354 C 270.858 116.266,271.062 116.096,268.923 120.221 C 268.578 120.885,268.240 121.485,268.171 121.554 C 267.979 121.745,267.136 123.615,267.220 123.663 C 267.260 123.686,267.745 123.982,268.296 124.321 C 276.894 129.602,289.137 128.167,292.536 121.481 C 293.826 118.944,293.860 118.785,293.850 115.288 C 293.834 110.206,292.532 108.042,288.095 105.724 C 286.848 105.072,283.254 103.759,282.717 103.759 C 282.164 103.759,279.309 102.292,278.828 101.761 C 277.568 100.369,278.720 96.992,280.454 96.992 C 280.673 96.992,280.976 96.869,281.126 96.718 C 281.789 96.056,285.620 96.798,287.466 97.946 C 288.859 98.811,288.887 98.800,289.827 96.992 C 292.665 91.536,292.566 91.901,291.353 91.365 C 290.871 91.152,290.093 90.808,289.624 90.602 C 289.155 90.395,288.646 90.226,288.493 90.226 C 288.339 90.226,288.018 90.118,287.779 89.986 C 286.208 89.122,280.337 88.778,277.694 89.395 M201.063 90.183 C 200.814 90.341,200.762 94.154,200.813 108.412 L 200.877 126.441 211.153 126.441 L 221.429 126.441 221.498 122.744 L 221.567 119.048 216.097 119.048 C 209.516 119.048,210.025 119.354,210.025 115.390 C 210.025 111.688,209.437 112.030,215.810 112.030 L 220.802 112.030 220.802 108.297 C 220.802 103.802,221.379 104.225,215.296 104.262 C 212.741 104.278,210.507 104.284,210.331 104.275 C 210.084 104.264,210.026 103.525,210.080 101.065 L 210.150 97.870 215.789 97.744 L 221.429 97.619 221.498 93.953 C 221.566 90.324,221.561 90.286,220.996 90.135 C 220.143 89.906,201.428 89.951,201.063 90.183 M239.513 90.433 C 239.284 90.685,239.098 91.016,239.098 91.169 C 239.098 91.321,238.829 92.102,238.501 92.903 C 238.172 93.705,237.608 95.122,237.247 96.053 C 235.933 99.444,235.275 101.149,234.905 102.130 C 233.637 105.490,233.283 106.388,233.057 106.826 C 232.933 107.066,232.832 107.387,232.832 107.540 C 232.832 107.694,232.651 108.231,232.431 108.734 C 232.017 109.677,231.908 109.947,231.256 111.654 C 231.045 112.206,230.568 113.446,230.196 114.411 C 229.823 115.376,229.349 116.617,229.140 117.168 C 228.142 119.813,227.580 121.247,227.159 122.218 C 226.971 122.653,226.817 123.170,226.817 123.367 C 226.817 123.564,226.740 123.803,226.645 123.898 C 226.428 124.115,225.823 125.837,225.818 126.253 C 225.814 126.603,234.729 126.718,235.233 126.375 C 235.381 126.273,235.881 125.006,236.343 123.559 C 237.571 119.709,236.751 120.050,244.767 120.050 C 252.638 120.050,251.741 119.729,252.768 122.916 C 253.082 123.890,253.519 125.110,253.740 125.627 L 254.142 126.566 258.901 126.566 C 263.962 126.566,264.040 126.546,263.434 125.373 C 263.311 125.133,263.013 124.430,262.774 123.810 C 262.534 123.189,262.201 122.343,262.034 121.930 C 261.866 121.516,261.588 120.783,261.416 120.301 C 261.243 119.818,261.014 119.198,260.907 118.922 C 260.800 118.647,260.539 117.970,260.329 117.419 C 259.944 116.413,259.205 114.499,257.983 111.343 C 257.622 110.411,257.173 109.294,256.984 108.859 C 256.796 108.425,256.642 107.912,256.642 107.719 C 256.642 107.526,256.547 107.261,256.432 107.130 C 256.317 106.999,256.025 106.328,255.782 105.639 C 255.540 104.950,255.200 104.048,255.026 103.634 C 254.853 103.221,254.569 102.487,254.394 102.005 C 254.219 101.523,253.938 100.789,253.768 100.376 C 253.598 99.962,253.316 99.229,253.141 98.747 C 252.966 98.264,252.679 97.531,252.502 97.118 C 252.325 96.704,252.010 95.858,251.803 95.238 C 251.431 94.125,251.133 93.362,250.466 91.817 C 250.279 91.382,250.125 90.900,250.125 90.745 C 250.125 89.838,240.312 89.549,239.513 90.433 M296.742 90.253 C 296.742 90.406,297.306 91.307,297.995 92.254 C 298.684 93.202,299.248 94.082,299.248 94.211 C 299.248 94.339,299.348 94.482,299.470 94.528 C 299.592 94.574,300.344 95.570,301.140 96.742 C 301.936 97.914,302.801 99.154,303.061 99.499 C 303.321 99.843,304.910 102.043,306.591 104.386 L 309.649 108.647 309.774 117.544 L 309.900 126.441 314.281 126.441 L 318.663 126.441 318.834 125.439 C 318.928 124.887,319.012 120.981,319.021 116.759 C 319.037 109.455,319.157 108.041,319.794 107.647 C 319.946 107.553,320.376 107.020,320.750 106.462 C 321.916 104.718,322.167 104.351,322.620 103.733 C 325.415 99.919,332.080 90.392,332.080 90.211 C 332.080 90.071,329.949 89.975,326.838 89.975 L 321.597 89.975 320.733 91.165 C 320.258 91.820,319.216 93.315,318.417 94.486 C 317.619 95.658,316.898 96.673,316.816 96.742 C 316.662 96.871,316.457 97.188,315.479 98.808 C 314.966 99.657,313.784 100.175,313.784 99.550 C 313.784 99.440,313.616 99.130,313.410 98.860 C 312.688 97.918,309.747 93.667,308.896 92.337 C 307.293 89.831,307.721 89.975,301.880 89.975 C 298.281 89.975,296.742 90.058,296.742 90.253 M146.938 91.167 C 150.439 93.043,150.273 95.811,146.466 99.055 C 141.808 103.022,140.194 104.358,138.384 105.742 C 137.329 106.549,136.198 107.499,135.871 107.852 L 135.275 108.496 135.996 108.645 C 138.688 109.203,140.014 110.168,140.551 111.960 C 141.082 113.734,140.583 115.131,138.789 116.887 C 137.676 117.977,137.804 118.285,139.373 118.292 C 142.657 118.306,144.493 123.107,142.105 125.439 C 140.925 126.591,140.854 126.997,141.792 127.228 C 145.024 128.026,146.433 131.982,144.304 134.279 C 143.991 134.618,142.303 136.067,140.554 137.501 C 138.805 138.934,136.154 141.208,134.664 142.553 C 125.485 150.841,120.751 154.167,116.701 155.175 C 113.706 155.921,113.460 156.101,107.477 161.916 C 104.435 164.874,101.777 167.332,101.571 167.380 C 101.225 167.460,100.223 166.488,95.544 161.529 C 94.634 160.564,92.861 158.703,91.605 157.393 C 90.349 156.084,87.579 153.153,85.450 150.881 C 83.321 148.608,81.050 146.190,80.403 145.507 C 79.070 144.099,79.088 143.952,80.710 142.868 C 81.326 142.456,82.112 141.898,82.456 141.628 C 82.801 141.358,84.098 140.403,85.338 139.505 C 92.108 134.604,91.786 134.893,93.700 132.016 C 94.687 130.533,96.128 128.164,96.903 126.752 C 99.505 122.015,102.583 117.145,104.863 114.160 C 106.874 111.527,107.098 111.153,107.641 109.524 C 108.383 107.300,108.261 104.397,107.308 101.560 C 106.029 97.753,106.745 96.343,109.932 96.390 C 114.514 96.456,118.554 104.055,116.947 109.584 C 116.546 110.962,116.424 112.030,116.666 112.030 C 116.846 112.030,119.878 109.799,120.178 109.446 C 120.317 109.282,120.937 108.755,121.556 108.274 C 122.175 107.794,122.851 107.265,123.058 107.099 C 123.264 106.933,124.392 106.045,125.564 105.126 C 126.736 104.207,128.202 103.009,128.822 102.465 C 129.442 101.920,130.721 100.889,131.664 100.173 C 134.509 98.013,135.168 97.492,139.103 94.284 C 143.794 90.462,144.844 90.044,146.938 91.167 M144.987 91.980 C 144.902 92.118,144.444 92.231,143.970 92.231 C 143.496 92.231,143.108 92.349,143.108 92.493 C 143.108 92.638,142.808 93.034,142.441 93.374 C 141.507 94.240,142.029 95.157,144.788 97.498 L 145.531 98.128 146.441 97.468 C 146.942 97.105,147.305 96.762,147.248 96.705 C 147.192 96.649,147.249 96.155,147.376 95.607 C 147.850 93.554,145.872 90.549,144.987 91.980 M245.224 101.560 C 245.438 101.866,245.614 102.355,245.614 102.646 C 245.614 102.937,245.697 103.257,245.798 103.358 C 245.899 103.459,246.111 103.957,246.269 104.465 C 246.427 104.973,247.136 107.022,247.844 109.019 C 249.486 113.648,249.760 113.283,244.634 113.283 C 239.625 113.283,239.649 113.304,241.084 110.150 C 241.209 109.875,241.370 109.424,241.441 109.148 C 241.512 108.872,241.921 107.688,242.351 106.516 C 242.780 105.345,243.349 103.731,243.615 102.930 C 244.343 100.740,244.535 100.576,245.224 101.560 M231.078 134.741 C 213.240 139.398,220.170 164.876,238.294 161.270 C 242.207 160.491,247.870 156.444,247.870 154.426 C 247.870 154.289,247.962 154.140,248.076 154.094 C 248.189 154.048,248.584 153.051,248.954 151.880 C 250.466 147.087,249.523 143.005,245.865 138.512 C 243.255 135.308,235.997 133.457,231.078 134.741 M300.793 134.724 C 297.134 136.062,295.441 138.355,295.280 142.190 C 295.091 146.668,296.394 148.152,302.256 150.139 C 305.619 151.279,306.266 151.809,306.266 153.421 C 306.266 155.629,305.143 156.308,301.754 156.150 C 300.765 156.104,298.142 154.932,297.339 154.176 L 296.809 153.677 296.272 154.721 C 295.977 155.295,295.392 156.373,294.973 157.116 C 294.037 158.774,294.076 158.885,295.903 159.775 C 304.430 163.933,312.643 160.850,312.979 153.367 C 313.178 148.957,311.102 146.499,305.890 144.971 C 302.896 144.093,301.906 143.331,301.958 141.946 C 302.052 139.440,305.125 138.699,308.355 140.402 C 309.482 140.996,309.433 141.033,310.755 138.554 C 311.784 136.623,311.854 136.005,311.073 135.753 C 310.841 135.678,309.975 135.374,309.148 135.078 C 307.103 134.345,302.377 134.144,300.793 134.724 M200.752 137.567 C 200.752 140.484,200.657 140.392,203.623 140.338 C 206.838 140.279,206.516 139.118,206.516 150.786 L 206.516 160.918 209.586 160.847 L 212.657 160.777 212.722 150.765 C 212.772 143.138,212.862 140.706,213.098 140.556 C 213.269 140.447,214.496 140.357,215.825 140.355 C 218.673 140.350,218.546 140.491,218.546 137.323 L 218.546 135.088 209.649 135.088 L 200.752 135.088 200.752 137.567 M266.469 144.424 C 266.536 150.266,266.676 153.994,266.844 154.386 C 266.992 154.731,267.321 155.520,267.576 156.140 C 268.091 157.395,268.221 157.592,269.298 158.755 C 271.022 160.615,274.366 161.658,278.268 161.551 C 280.333 161.495,283.125 161.015,283.459 160.660 C 283.528 160.586,284.032 160.301,284.580 160.025 C 288.483 158.062,289.266 155.174,289.164 143.101 L 289.098 135.213 285.917 135.143 L 282.736 135.073 282.659 144.040 L 282.581 153.008 281.848 154.089 C 279.596 157.410,274.212 156.552,273.175 152.707 C 272.883 151.623,272.813 149.221,272.689 135.902 L 272.682 135.088 269.522 135.088 L 266.362 135.088 266.469 144.424 M317.951 135.871 C 317.630 137.476,317.774 160.026,318.108 160.483 C 318.392 160.871,319.064 160.905,325.439 160.844 L 332.456 160.777 332.528 158.208 L 332.599 155.639 328.736 155.639 C 324.109 155.639,324.262 155.737,324.363 152.844 L 324.436 150.752 328.258 150.683 L 332.080 150.614 332.080 147.993 C 332.080 144.837,332.271 144.961,327.812 145.218 C 324.255 145.422,324.250 145.418,324.363 142.415 L 324.436 140.476 327.945 140.415 C 332.983 140.328,332.581 140.573,332.581 137.589 L 332.581 135.088 325.345 135.088 L 318.108 135.088 317.951 135.871 M237.970 140.883 C 245.863 144.337,243.580 155.388,234.974 155.388 C 228.542 155.388,225.060 148.055,229.165 143.155 C 230.228 141.886,231.095 141.333,233.333 140.498 C 233.958 140.265,237.166 140.531,237.970 140.883 " stroke="none" fill="#fbfbfb" fill-rule="evenodd"></path><path id="path2" d="M113.910 55.905 C 108.484 56.413,106.508 56.660,105.013 57.016 C 104.117 57.229,102.763 57.503,102.005 57.624 C 101.247 57.745,100.006 58.081,99.248 58.370 C 98.490 58.660,97.676 58.897,97.440 58.897 C 97.203 58.897,96.583 59.082,96.061 59.308 C 94.644 59.922,94.174 60.101,93.484 60.293 C 93.139 60.388,92.406 60.667,91.855 60.913 C 91.303 61.158,89.893 61.781,88.722 62.296 C 73.135 69.154,59.345 83.761,53.127 100.000 C 52.678 101.172,52.218 102.356,52.105 102.632 C 51.992 102.907,51.712 103.753,51.483 104.511 C 51.254 105.269,50.924 106.341,50.750 106.892 C 50.575 107.444,50.302 108.571,50.142 109.398 C 49.983 110.226,49.692 111.635,49.497 112.531 C 48.662 116.366,48.540 118.049,48.553 125.564 C 48.565 132.381,48.626 133.520,49.121 136.090 C 49.426 137.675,49.766 139.486,49.877 140.114 C 50.336 142.701,51.727 147.220,53.191 150.877 C 55.391 156.372,60.307 165.155,60.958 164.753 C 61.105 164.662,61.165 164.743,61.096 164.940 C 60.927 165.420,61.871 166.714,62.237 166.504 C 62.399 166.411,62.446 166.429,62.342 166.544 C 61.631 167.328,72.823 179.104,73.741 178.537 C 73.892 178.443,73.941 178.484,73.851 178.629 C 73.592 179.049,75.727 180.720,76.315 180.557 C 76.661 180.462,76.716 180.489,76.492 180.645 C 76.229 180.828,76.236 180.929,76.530 181.173 C 76.815 181.409,76.922 181.405,77.024 181.151 C 77.109 180.938,77.160 180.972,77.173 181.249 C 77.197 181.750,78.440 182.682,78.878 182.527 C 79.047 182.467,79.439 182.596,79.749 182.813 C 80.182 183.117,80.217 183.208,79.901 183.208 C 79.675 183.208,79.440 183.067,79.379 182.895 C 79.317 182.722,79.182 182.660,79.079 182.756 C 78.809 183.006,80.447 183.946,80.870 183.783 C 81.083 183.702,81.194 183.785,81.151 183.992 C 81.101 184.225,81.279 184.312,81.704 184.262 C 82.167 184.207,82.239 184.250,81.979 184.426 C 81.710 184.608,81.938 184.822,82.944 185.332 C 83.668 185.699,84.187 185.879,84.096 185.731 C 84.004 185.582,84.116 185.464,84.348 185.464 C 84.616 185.464,84.714 185.598,84.621 185.839 C 84.523 186.096,84.798 186.377,85.498 186.734 C 86.059 187.021,86.444 187.134,86.352 186.986 C 86.255 186.828,86.394 186.717,86.687 186.717 C 86.963 186.717,87.258 186.830,87.343 186.967 C 87.429 187.105,87.316 187.218,87.093 187.218 C 86.870 187.218,86.745 187.312,86.816 187.427 C 86.887 187.542,87.317 187.597,87.771 187.550 C 88.350 187.490,88.459 187.525,88.134 187.666 C 87.717 187.848,87.737 187.898,88.338 188.171 C 88.710 188.341,88.935 188.363,88.848 188.222 C 88.762 188.084,88.918 187.970,89.193 187.970 C 89.826 187.970,90.165 188.464,89.551 188.491 C 89.284 188.503,89.511 188.705,90.100 188.980 C 90.652 189.238,91.348 189.388,91.649 189.313 C 91.949 189.239,92.400 189.297,92.651 189.443 C 93.062 189.683,93.046 189.712,92.481 189.734 C 91.909 189.757,91.899 189.778,92.356 189.965 C 92.632 190.078,93.164 190.113,93.539 190.043 C 94.471 189.868,95.333 190.197,94.630 190.459 C 94.198 190.620,94.192 190.656,94.567 190.800 C 94.798 190.889,94.987 190.852,94.987 190.719 C 94.987 190.433,95.755 190.400,96.408 190.657 C 96.785 190.806,96.733 190.862,96.118 190.973 L 95.368 191.107 96.306 191.395 C 96.822 191.553,97.181 191.580,97.103 191.455 C 97.026 191.330,97.301 191.228,97.715 191.228 C 98.488 191.228,98.986 191.608,98.448 191.787 C 98.257 191.851,98.303 191.948,98.572 192.051 C 98.806 192.141,98.997 192.106,98.997 191.972 C 98.997 191.658,100.263 191.664,100.752 191.980 C 101.036 192.163,100.913 192.228,100.251 192.244 L 99.373 192.264 100.501 192.619 C 101.849 193.044,102.085 193.063,101.880 192.732 C 101.604 192.286,103.090 192.446,106.516 193.231 C 107.374 193.427,107.365 193.433,106.140 193.478 L 104.887 193.525 106.617 193.895 C 107.796 194.148,108.399 194.183,108.509 194.005 C 108.621 193.823,110.338 193.834,114.106 194.039 C 118.329 194.270,120.227 194.268,122.615 194.033 C 126.550 193.645,129.163 193.637,128.931 194.012 C 128.810 194.207,129.009 194.231,129.605 194.093 C 130.070 193.985,130.902 193.818,131.454 193.722 C 132.356 193.564,132.295 193.543,130.848 193.515 C 128.990 193.479,129.008 193.236,130.893 192.928 C 133.496 192.502,135.417 192.402,135.232 192.700 C 135.018 193.047,134.973 193.050,136.341 192.619 L 137.469 192.264 136.236 192.247 C 133.762 192.214,136.283 191.512,139.429 191.358 C 140.370 191.313,141.216 191.197,141.309 191.102 C 141.402 191.007,141.174 190.968,140.801 191.016 C 139.901 191.131,139.881 190.647,140.777 190.438 C 141.163 190.348,141.848 190.125,142.299 189.942 C 142.899 189.699,143.234 189.683,143.552 189.881 C 143.798 190.034,144.201 190.067,144.486 189.955 C 144.917 189.787,144.888 189.757,144.283 189.742 C 143.593 189.725,143.543 189.223,144.232 189.223 C 144.421 189.223,145.430 188.828,146.474 188.346 C 147.518 187.863,148.477 187.469,148.605 187.469 C 148.732 187.469,148.987 187.328,149.171 187.155 C 149.979 186.400,151.407 185.862,151.857 186.143 C 152.129 186.313,152.437 186.334,152.654 186.196 C 152.923 186.026,152.872 185.972,152.444 185.969 C 151.544 185.963,151.787 185.577,153.008 185.074 C 153.628 184.818,154.135 184.463,154.135 184.284 C 154.135 184.106,154.315 183.960,154.535 183.960 C 154.998 183.960,160.415 180.391,161.379 179.450 C 162.101 178.746,163.331 178.123,163.455 178.399 C 163.498 178.496,163.929 178.505,164.411 178.419 L 165.288 178.261 164.348 178.228 C 163.221 178.189,163.104 177.743,164.167 177.530 C 164.583 177.447,165.140 177.083,165.403 176.722 C 165.666 176.361,166.672 175.445,167.639 174.687 C 168.606 173.929,169.404 173.120,169.411 172.889 C 169.418 172.658,169.762 172.131,170.175 171.718 C 170.589 171.304,170.928 170.873,170.929 170.759 C 170.930 170.645,171.438 170.054,172.057 169.446 C 172.676 168.837,173.183 168.248,173.183 168.136 C 173.183 168.024,173.578 167.573,174.060 167.134 C 174.543 166.695,174.938 166.213,174.940 166.062 C 174.941 165.912,175.505 165.064,176.193 164.178 C 176.881 163.291,177.444 162.324,177.444 162.027 C 177.444 161.709,177.700 161.351,178.070 161.153 C 178.415 160.968,178.697 160.671,178.697 160.493 C 178.697 160.093,179.821 158.044,180.616 156.994 C 180.939 156.567,181.203 156.086,181.203 155.924 C 181.203 155.762,181.485 155.182,181.830 154.637 C 182.174 154.091,182.456 153.463,182.456 153.242 C 182.456 152.895,182.965 151.604,184.328 148.496 C 184.715 147.612,186.123 143.065,186.345 141.980 C 186.430 141.566,186.715 140.382,186.979 139.348 C 187.243 138.315,187.573 136.397,187.713 135.088 C 187.852 133.778,188.090 131.523,188.241 130.075 C 188.759 125.121,188.321 117.617,187.180 111.905 C 186.253 107.264,186.375 107.751,185.106 103.634 C 184.936 103.083,184.711 102.406,184.607 102.130 C 183.253 98.557,182.701 97.230,181.649 95.009 C 179.348 90.156,175.692 84.539,172.196 80.487 C 171.207 79.341,170.433 78.307,170.475 78.189 C 170.517 78.071,209.010 77.940,256.015 77.897 L 341.479 77.820 342.607 78.483 C 343.933 79.264,344.775 80.162,345.761 81.844 L 346.479 83.068 346.485 125.682 L 346.491 168.296 345.739 169.514 C 345.326 170.183,344.885 170.924,344.760 171.160 C 344.484 171.677,343.002 172.682,342.513 172.682 C 342.321 172.682,341.828 172.823,341.418 172.995 C 340.830 173.243,334.277 173.276,310.124 173.156 C 220.943 172.712,175.687 172.914,175.069 173.759 C 174.927 173.953,174.585 174.185,174.310 174.274 C 173.644 174.489,173.127 175.618,173.433 176.190 C 173.741 176.765,173.525 176.942,172.515 176.942 C 172.055 176.942,171.679 177.041,171.679 177.161 C 171.679 177.387,172.875 177.550,176.942 177.878 L 179.323 178.070 176.316 178.203 C 174.662 178.276,210.470 178.334,255.890 178.331 C 326.709 178.328,331.082 178.309,286.591 178.199 L 234.712 178.070 281.078 177.877 C 342.554 177.620,341.158 177.650,342.796 176.539 C 343.282 176.209,343.825 175.940,344.004 175.940 C 344.183 175.940,344.700 175.602,345.153 175.188 C 346.233 174.202,347.212 174.192,346.303 175.176 C 346.131 175.363,346.290 175.301,346.656 175.039 C 347.109 174.715,347.209 174.535,346.970 174.480 C 346.509 174.375,346.517 173.957,346.983 173.779 C 347.184 173.701,347.418 173.423,347.501 173.160 C 347.688 172.572,348.055 172.537,348.165 173.097 C 348.237 173.469,348.284 173.464,348.622 173.049 C 348.828 172.794,348.868 172.663,348.710 172.757 C 348.105 173.120,348.180 172.172,348.829 171.258 C 349.683 170.055,350.125 169.059,350.125 168.340 C 350.125 168.032,350.290 167.546,350.491 167.258 C 350.808 166.806,350.863 161.119,350.904 124.909 C 350.929 101.905,351.035 83.365,351.139 83.709 C 351.322 84.315,351.329 84.311,351.334 83.584 C 351.341 82.776,350.677 80.785,350.646 81.516 C 350.619 82.119,350.125 82.074,350.125 81.468 C 350.125 81.201,350.013 80.912,349.875 80.827 C 349.737 80.742,349.624 80.502,349.624 80.293 C 349.624 80.085,349.455 79.745,349.248 79.538 C 348.809 79.099,348.758 78.697,349.140 78.697 C 349.287 78.697,349.162 78.352,348.862 77.930 C 348.562 77.509,348.259 77.222,348.188 77.292 C 348.118 77.362,348.243 77.602,348.466 77.826 C 348.924 78.283,348.997 78.697,348.622 78.697 C 348.484 78.697,348.371 78.541,348.371 78.351 C 348.371 78.162,348.200 77.865,347.992 77.691 C 347.783 77.518,347.642 77.194,347.678 76.972 C 347.716 76.738,347.598 76.597,347.400 76.639 C 347.208 76.680,347.109 76.570,347.175 76.389 C 347.241 76.211,346.973 75.803,346.580 75.482 C 345.813 74.857,345.610 74.897,346.259 75.546 C 346.617 75.904,346.617 75.940,346.259 75.940 C 346.042 75.940,345.865 75.835,345.865 75.706 C 345.865 75.578,345.611 75.392,345.301 75.293 C 344.776 75.126,344.770 75.102,345.213 74.946 C 345.781 74.747,344.193 73.723,342.481 73.184 C 341.930 73.010,341.232 72.776,340.931 72.663 C 340.630 72.549,340.348 72.539,340.305 72.640 C 340.261 72.741,328.102 72.764,313.283 72.690 L 286.341 72.556 312.657 72.429 C 327.130 72.359,299.599 72.275,251.477 72.241 L 163.982 72.180 162.376 70.990 C 159.335 68.735,156.513 66.763,155.263 66.020 C 154.574 65.610,153.672 65.074,153.258 64.828 C 152.845 64.583,151.096 63.707,149.373 62.883 C 147.650 62.058,146.015 61.275,145.739 61.142 C 145.077 60.823,140.432 59.151,139.474 58.887 C 138.658 58.662,135.291 57.802,133.083 57.255 C 127.997 55.993,119.413 55.389,113.910 55.905 M125.689 71.387 C 128.961 71.723,136.053 73.591,138.791 74.837 C 139.519 75.168,140.171 75.439,140.241 75.439 C 140.545 75.439,145.171 77.848,147.080 79.001 C 152.331 82.171,158.882 88.077,162.050 92.494 C 162.866 93.633,163.811 94.857,164.149 95.215 C 164.487 95.572,164.744 95.892,164.720 95.925 C 164.618 96.063,165.038 96.918,165.553 97.619 C 165.856 98.033,166.516 99.160,167.020 100.125 C 167.523 101.090,168.121 102.020,168.348 102.190 C 168.575 102.361,168.690 102.571,168.605 102.657 C 168.436 102.826,169.346 105.487,169.705 105.877 C 169.826 106.008,169.925 106.325,169.925 106.581 C 169.925 106.873,170.034 106.979,170.218 106.866 C 170.414 106.745,170.459 106.820,170.355 107.092 C 170.269 107.316,170.463 108.256,170.787 109.181 C 171.210 110.390,171.416 110.728,171.519 110.382 C 171.598 110.117,171.610 110.373,171.545 110.951 C 171.480 111.530,171.532 112.263,171.660 112.580 C 171.788 112.898,172.035 113.856,172.210 114.709 C 172.385 115.562,172.607 116.211,172.704 116.152 C 172.918 116.019,172.997 118.501,172.998 125.313 C 172.999 133.200,172.897 136.399,172.683 135.213 C 172.466 134.011,172.332 134.767,172.371 136.967 C 172.391 138.095,172.376 138.133,172.214 137.343 L 172.034 136.466 171.846 137.343 C 171.743 137.826,171.670 138.915,171.684 139.763 C 171.698 140.611,171.590 141.379,171.444 141.469 C 171.298 141.560,171.178 141.965,171.178 142.371 C 171.178 142.776,171.060 143.108,170.916 143.108 C 170.756 143.108,170.708 142.742,170.792 142.168 L 170.930 141.228 170.583 142.105 C 170.392 142.588,170.325 143.080,170.435 143.199 C 170.610 143.390,170.050 145.805,169.760 146.108 C 169.698 146.173,169.556 146.079,169.445 145.900 C 169.307 145.676,169.109 145.911,168.812 146.652 C 168.575 147.245,168.486 147.766,168.615 147.809 C 168.894 147.902,168.704 149.123,168.410 149.123 C 168.299 149.123,168.171 148.941,168.126 148.718 C 168.077 148.472,167.825 148.767,167.484 149.470 C 166.880 150.717,166.911 151.070,167.526 149.937 C 167.883 149.279,167.900 149.274,167.910 149.821 C 167.924 150.655,167.121 151.834,166.923 151.269 C 166.810 150.946,166.651 151.082,166.240 151.851 C 165.872 152.541,165.796 152.886,165.998 152.957 C 166.206 153.030,166.181 153.197,165.912 153.535 C 165.704 153.796,165.317 154.405,165.054 154.887 C 164.790 155.370,164.495 155.821,164.399 155.890 C 164.302 155.959,163.984 156.410,163.692 156.892 C 163.334 157.482,163.159 157.621,163.159 157.316 C 163.158 156.768,162.768 156.967,162.366 157.721 C 162.094 158.233,162.105 158.245,162.526 157.897 C 164.104 156.595,161.421 160.156,158.879 162.737 C 157.235 164.407,155.890 165.861,155.890 165.969 C 155.890 166.077,155.721 166.165,155.514 166.165 C 155.307 166.165,155.136 166.250,155.133 166.353 C 155.126 166.655,153.118 168.239,152.952 168.073 C 152.869 167.991,153.016 167.668,153.279 167.357 C 153.708 166.849,153.680 166.855,153.006 167.415 C 152.593 167.757,152.143 168.131,152.005 168.244 C 151.866 168.359,151.950 168.376,152.193 168.284 C 152.443 168.189,152.632 168.233,152.632 168.388 C 152.632 168.741,151.184 169.488,150.873 169.295 C 150.740 169.214,150.693 169.305,150.767 169.499 C 150.946 169.965,149.736 170.746,149.132 170.554 C 148.875 170.473,148.591 170.523,148.503 170.666 C 148.414 170.810,148.461 170.927,148.607 170.927 C 149.140 170.927,148.853 171.395,148.120 171.719 C 147.707 171.902,147.368 172.129,147.368 172.223 C 147.368 172.448,145.888 173.183,145.435 173.183 C 145.242 173.183,145.153 173.070,145.238 172.932 C 145.472 172.553,145.051 172.647,144.486 173.099 C 144.093 173.414,144.078 173.469,144.416 173.353 C 145.056 173.133,145.209 173.615,144.603 173.940 C 144.250 174.128,143.979 174.138,143.776 173.969 C 143.568 173.797,143.161 173.863,142.476 174.182 C 141.923 174.439,141.674 174.655,141.917 174.666 C 142.691 174.702,142.385 175.188,141.589 175.188 C 141.074 175.188,140.881 175.093,141.001 174.899 C 141.110 174.723,141.070 174.677,140.902 174.781 C 140.749 174.876,140.694 175.137,140.780 175.361 C 140.911 175.704,140.797 175.746,140.058 175.626 C 139.575 175.548,139.021 175.584,138.826 175.708 C 138.576 175.866,138.564 175.933,138.784 175.936 C 138.957 175.938,139.098 176.039,139.098 176.160 C 139.098 176.539,137.672 176.991,136.671 176.931 C 135.189 176.840,134.881 176.898,135.331 177.183 C 136.094 177.666,132.907 178.638,132.056 178.182 C 131.765 178.027,131.367 178.044,130.906 178.231 L 130.201 178.516 130.827 178.690 C 131.609 178.906,128.627 179.452,126.692 179.447 C 126.003 179.445,124.480 179.469,123.308 179.500 C 117.733 179.647,107.860 179.440,109.524 179.211 L 110.652 179.055 109.524 178.915 C 108.904 178.838,108.275 178.868,108.126 178.981 C 107.978 179.094,107.358 179.089,106.748 178.969 L 105.639 178.752 106.767 178.695 L 107.895 178.639 106.892 178.413 C 106.341 178.289,105.269 178.178,104.511 178.166 C 103.354 178.148,103.253 178.113,103.885 177.949 L 104.637 177.754 103.885 177.698 C 103.471 177.668,102.754 177.665,102.290 177.690 C 101.691 177.724,101.501 177.651,101.633 177.437 C 101.908 176.992,101.291 176.722,100.272 176.844 C 99.631 176.921,99.513 176.890,99.861 176.738 C 100.345 176.527,100.345 176.524,99.861 176.367 C 99.593 176.280,98.955 176.050,98.443 175.856 C 97.932 175.663,97.199 175.548,96.814 175.600 C 96.344 175.665,96.255 175.633,96.542 175.505 C 96.914 175.338,96.890 175.276,96.354 175.024 C 96.016 174.864,95.739 174.833,95.739 174.953 C 95.739 175.074,95.571 175.108,95.365 175.029 C 95.159 174.949,95.053 174.784,95.129 174.660 C 95.275 174.424,95.014 174.365,93.985 174.404 C 93.422 174.426,93.410 174.407,93.860 174.218 C 94.462 173.967,93.523 173.539,92.607 173.647 C 92.260 173.688,92.202 173.640,92.420 173.492 C 92.859 173.192,90.932 172.127,90.313 172.328 C 89.957 172.443,89.931 172.421,90.199 172.229 C 90.655 171.905,89.140 171.061,88.221 171.126 C 87.663 171.165,87.649 171.147,88.095 170.959 C 88.557 170.765,88.529 170.708,87.737 170.224 C 87.264 169.936,86.768 169.768,86.633 169.851 C 86.499 169.934,86.465 169.879,86.558 169.728 C 86.759 169.404,84.495 167.767,83.997 167.878 C 83.811 167.919,83.723 167.850,83.801 167.724 C 83.878 167.598,83.602 167.170,83.187 166.772 C 82.556 166.168,82.394 166.110,82.197 166.420 C 82.004 166.727,81.962 166.708,81.959 166.312 C 81.957 166.048,81.131 165.033,80.123 164.056 C 76.638 160.678,73.678 156.901,71.027 152.451 C 70.186 151.039,69.407 149.966,69.295 150.067 C 69.184 150.168,69.170 150.115,69.265 149.950 C 69.360 149.784,69.218 149.164,68.948 148.571 C 67.751 145.934,67.168 144.586,67.168 144.454 C 67.168 144.376,67.013 143.956,66.823 143.522 C 66.225 142.153,65.387 139.069,64.870 136.341 C 64.596 134.893,64.240 133.258,64.079 132.707 C 63.690 131.376,63.700 119.353,64.092 117.794 C 64.248 117.174,64.555 115.708,64.774 114.536 C 65.147 112.541,66.224 108.518,66.686 107.393 C 66.800 107.118,67.296 105.896,67.790 104.678 C 69.176 101.256,71.180 97.506,72.870 95.170 C 73.391 94.449,74.124 93.409,74.497 92.857 C 74.870 92.306,75.432 91.572,75.746 91.226 C 76.059 90.880,77.039 89.773,77.922 88.767 C 79.546 86.916,83.803 83.083,85.772 81.699 C 89.967 78.750,93.718 76.623,97.243 75.194 C 98.001 74.886,98.847 74.542,99.123 74.429 C 100.127 74.017,104.419 72.726,105.639 72.469 C 106.328 72.324,107.682 72.037,108.647 71.830 C 112.590 70.988,119.948 70.796,125.689 71.387 M167.254 72.705 C 166.781 72.843,166.077 72.844,165.500 72.708 C 164.626 72.502,164.699 72.481,166.291 72.479 C 167.757 72.477,167.915 72.514,167.254 72.705 M343.860 74.060 C 344.031 74.267,344.346 74.436,344.559 74.436 C 344.772 74.436,344.875 74.507,344.788 74.594 C 344.632 74.750,342.857 74.018,342.857 73.798 C 342.857 73.529,343.574 73.716,343.860 74.060 M351.500 121.930 C 351.500 142.193,351.530 150.445,351.566 140.269 C 351.603 130.092,351.603 113.513,351.566 103.426 C 351.530 93.340,351.500 101.667,351.500 121.930 M172.353 113.972 C 172.290 114.214,172.239 114.016,172.239 113.534 C 172.239 113.051,172.290 112.854,172.353 113.095 C 172.416 113.336,172.416 113.731,172.353 113.972 M173.621 128.133 C 173.576 129.546,173.539 128.390,173.539 125.564 C 173.539 122.738,173.576 121.582,173.621 122.995 C 173.665 124.408,173.665 126.720,173.621 128.133 M171.212 139.892 C 171.193 140.122,171.105 140.516,171.016 140.769 C 170.891 141.123,170.924 141.163,171.162 140.944 C 171.332 140.787,171.420 140.393,171.359 140.067 C 171.297 139.740,171.231 139.662,171.212 139.892 M163.720 155.774 C 163.408 156.251,163.267 156.642,163.406 156.642 C 163.545 156.642,163.659 156.537,163.659 156.409 C 163.659 156.281,163.837 155.998,164.055 155.780 C 164.273 155.562,164.414 155.277,164.369 155.146 C 164.323 155.015,164.031 155.298,163.720 155.774 M161.316 159.048 C 161.061 159.397,160.920 159.751,161.003 159.833 C 161.085 159.916,161.153 159.852,161.153 159.691 C 161.153 159.530,161.298 159.398,161.475 159.398 C 161.653 159.398,161.815 159.173,161.836 158.897 C 161.883 158.273,161.880 158.274,161.316 159.048 M351.475 162.657 C 351.475 164.380,351.515 165.085,351.564 164.223 C 351.613 163.362,351.613 161.952,351.564 161.090 C 351.515 160.229,351.475 160.934,351.475 162.657 M157.894 162.783 C 157.571 163.127,157.365 163.409,157.437 163.409 C 157.685 163.409,158.726 162.402,158.604 162.280 C 158.537 162.213,158.217 162.439,157.894 162.783 M156.266 164.411 C 155.869 164.825,155.619 165.163,155.709 165.163 C 155.799 165.163,156.219 164.825,156.642 164.411 C 157.065 163.997,157.315 163.659,157.198 163.659 C 157.082 163.659,156.662 163.997,156.266 164.411 M147.125 171.566 C 146.634 171.913,146.424 172.180,146.643 172.180 C 146.856 172.180,147.295 171.898,147.619 171.554 C 148.349 170.777,148.239 170.780,147.125 171.566 M137.218 176.325 C 136.805 176.514,136.642 176.674,136.857 176.680 C 137.072 176.687,137.466 176.526,137.734 176.324 C 138.328 175.874,138.201 175.875,137.218 176.325 M133.333 177.585 C 132.522 177.892,132.506 177.918,133.115 177.931 C 133.477 177.938,133.914 177.776,134.085 177.569 C 134.257 177.362,134.355 177.206,134.304 177.223 C 134.253 177.239,133.816 177.402,133.333 177.585 M127.193 178.947 L 126.190 179.127 127.381 179.162 C 128.036 179.182,128.571 179.085,128.571 178.947 C 128.571 178.810,128.487 178.713,128.383 178.732 C 128.280 178.752,127.744 178.849,127.193 178.947 M75.496 179.699 C 75.792 179.975,75.946 180.201,75.839 180.201 C 75.731 180.201,75.356 179.975,75.006 179.699 C 74.655 179.424,74.501 179.198,74.663 179.198 C 74.826 179.198,75.200 179.424,75.496 179.699 M120.817 180.184 C 119.515 180.268,117.147 180.269,115.553 180.185 C 113.207 180.061,113.656 180.032,117.920 180.032 C 121.605 180.031,122.473 180.077,120.817 180.184 M91.353 188.972 C 91.537 189.269,91.291 189.269,90.602 188.972 C 90.118 188.765,90.120 188.756,90.649 188.739 C 90.951 188.730,91.268 188.835,91.353 188.972 M110.798 194.326 C 110.855 194.375,111.466 194.481,112.155 194.560 C 112.962 194.654,113.230 194.628,112.907 194.488 C 112.428 194.281,110.580 194.138,110.798 194.326 M125.125 194.408 C 125.367 194.471,125.761 194.471,126.003 194.408 C 126.244 194.345,126.046 194.294,125.564 194.294 C 125.081 194.294,124.884 194.345,125.125 194.408 M116.866 194.923 C 117.941 194.970,119.632 194.970,120.625 194.923 C 121.619 194.875,120.739 194.837,118.672 194.837 C 116.604 194.837,115.791 194.876,116.866 194.923 " stroke="none" fill="#0ab2f9" fill-rule="evenodd"></path><path id="path3" d="M113.659 55.292 C 105.240 56.165,99.318 57.410,94.612 59.298 C 93.784 59.630,93.007 59.901,92.884 59.900 C 91.866 59.897,83.458 64.166,79.978 66.453 C 78.959 67.122,78.073 67.669,78.008 67.669 C 77.463 67.669,70.288 73.836,67.589 76.623 C 64.152 80.173,58.647 87.094,58.647 87.864 C 58.647 87.970,58.489 88.234,58.296 88.451 C 57.632 89.201,54.631 94.912,53.297 97.966 C 51.819 101.347,50.127 106.709,49.373 110.401 C 49.204 111.228,48.970 112.243,48.854 112.657 C 48.402 114.263,47.870 121.183,47.868 125.461 C 47.866 131.476,48.189 134.396,49.653 141.602 C 50.018 143.397,51.939 149.493,52.616 151.003 C 52.739 151.278,53.101 152.124,53.419 152.882 C 54.368 155.141,57.116 160.442,58.331 162.359 C 66.030 174.507,78.373 184.903,91.103 189.964 C 92.206 190.403,93.457 190.912,93.883 191.097 C 94.938 191.554,99.640 192.993,100.877 193.236 C 101.429 193.345,102.669 193.618,103.634 193.844 C 111.797 195.751,124.348 195.793,132.832 193.942 C 134.142 193.656,135.495 193.369,135.840 193.304 C 136.735 193.134,142.934 191.203,143.233 191.001 C 143.371 190.908,143.935 190.681,144.486 190.498 C 145.393 190.197,146.586 189.689,149.123 188.527 C 152.480 186.989,159.428 182.674,162.720 180.082 L 164.161 178.947 251.232 178.947 C 345.247 178.947,340.169 179.018,343.400 177.670 C 345.626 176.742,348.774 174.117,349.782 172.350 C 352.305 167.927,352.111 171.817,352.121 125.271 C 352.132 78.234,352.370 82.910,349.719 78.168 C 348.292 75.615,344.665 73.103,341.118 72.211 L 339.002 71.679 251.643 71.679 L 164.284 71.679 163.145 70.865 C 162.518 70.417,161.504 69.641,160.890 69.142 C 159.029 67.627,153.482 64.253,150.271 62.683 C 146.776 60.973,144.423 59.900,144.171 59.900 C 144.075 59.900,143.260 59.631,142.361 59.303 C 134.104 56.289,121.301 54.500,113.659 55.292 M124.812 56.021 C 130.566 56.641,131.032 56.725,136.591 58.138 C 137.763 58.436,139.060 58.773,139.474 58.887 C 140.432 59.151,145.077 60.823,145.739 61.142 C 146.015 61.275,147.650 62.058,149.373 62.883 C 151.096 63.707,152.845 64.583,153.258 64.828 C 153.672 65.074,154.574 65.608,155.263 66.016 C 156.549 66.777,158.596 68.209,161.905 70.662 L 163.784 72.055 252.005 72.180 C 316.437 72.272,340.395 72.382,340.852 72.587 C 341.197 72.742,341.930 73.009,342.481 73.181 C 345.894 74.247,349.323 77.698,350.943 81.697 L 351.504 83.083 351.504 125.313 L 351.504 167.544 350.813 169.173 C 348.967 173.521,345.744 176.472,341.289 177.891 C 340.073 178.279,333.408 178.314,251.990 178.359 L 164.006 178.407 161.514 180.271 C 159.093 182.082,155.285 184.654,153.759 185.509 C 148.298 188.570,140.690 191.630,135.840 192.717 C 135.081 192.887,133.841 193.181,133.083 193.370 C 125.461 195.271,115.047 195.396,105.890 193.696 C 104.373 193.415,102.625 193.093,102.005 192.980 C 97.965 192.248,90.071 189.207,84.837 186.366 C 81.088 184.331,75.710 180.844,74.937 179.948 C 74.868 179.868,73.853 179.001,72.682 178.020 C 66.972 173.243,61.087 166.196,57.549 159.900 C 53.969 153.527,50.812 145.385,49.877 140.114 C 49.766 139.486,49.426 137.675,49.121 136.090 C 48.626 133.520,48.565 132.381,48.553 125.564 C 48.540 118.049,48.662 116.366,49.497 112.531 C 49.692 111.635,49.983 110.226,50.142 109.398 C 50.302 108.571,50.575 107.444,50.750 106.892 C 50.924 106.341,51.254 105.269,51.483 104.511 C 51.712 103.753,51.992 102.907,52.105 102.632 C 52.218 102.356,52.678 101.172,53.127 100.000 C 59.345 83.761,73.135 69.154,88.722 62.296 C 89.893 61.781,91.303 61.158,91.855 60.913 C 92.406 60.667,93.139 60.388,93.484 60.293 C 94.174 60.101,94.644 59.922,96.061 59.308 C 96.583 59.082,97.203 58.897,97.440 58.897 C 97.676 58.897,98.490 58.660,99.248 58.370 C 100.006 58.081,101.247 57.745,102.005 57.624 C 102.763 57.503,104.117 57.229,105.013 57.016 C 106.508 56.660,108.484 56.413,113.910 55.905 C 117.394 55.578,121.060 55.617,124.812 56.021 M112.657 71.216 C 111.416 71.348,109.612 71.624,108.647 71.830 C 107.682 72.037,106.328 72.324,105.639 72.469 C 104.419 72.726,100.127 74.017,99.123 74.429 C 98.847 74.542,98.001 74.886,97.243 75.194 C 93.718 76.623,89.967 78.750,85.772 81.699 C 83.803 83.083,79.546 86.916,77.922 88.767 C 77.039 89.773,76.059 90.880,75.746 91.226 C 75.432 91.572,74.870 92.306,74.497 92.857 C 74.124 93.409,73.391 94.449,72.870 95.170 C 71.180 97.506,69.176 101.256,67.790 104.678 C 67.296 105.896,66.800 107.118,66.686 107.393 C 66.224 108.518,65.147 112.541,64.774 114.536 C 64.555 115.708,64.248 117.174,64.092 117.794 C 63.700 119.353,63.690 131.376,64.079 132.707 C 64.240 133.258,64.596 134.893,64.870 136.341 C 65.387 139.069,66.225 142.153,66.823 143.522 C 67.013 143.956,67.168 144.380,67.168 144.464 C 67.168 144.548,67.384 145.095,67.649 145.679 C 67.913 146.264,68.484 147.527,68.918 148.486 C 70.590 152.185,73.877 157.187,76.833 160.534 C 77.642 161.450,78.451 162.409,78.631 162.665 C 79.046 163.258,83.614 167.213,85.589 168.689 C 89.277 171.446,94.614 174.486,97.619 175.539 C 98.308 175.781,99.098 176.079,99.373 176.201 C 101.862 177.305,107.634 178.731,111.466 179.188 C 116.986 179.846,124.560 179.630,128.697 178.695 C 133.128 177.694,135.687 176.940,138.847 175.704 C 143.728 173.796,147.900 171.375,152.506 167.779 C 154.695 166.071,160.124 160.696,161.477 158.897 C 162.960 156.925,164.912 154.139,164.912 153.992 C 164.912 153.915,165.183 153.492,165.514 153.053 C 166.395 151.887,169.260 145.846,170.172 143.233 C 173.479 133.762,174.133 122.632,171.917 113.534 C 171.800 113.051,171.588 112.119,171.448 111.462 C 171.150 110.072,170.074 106.859,169.394 105.329 C 169.135 104.744,168.922 104.172,168.922 104.058 C 168.922 103.692,166.143 98.402,165.516 97.573 C 165.184 97.134,164.912 96.709,164.912 96.627 C 164.912 96.546,164.544 95.946,164.094 95.295 C 159.472 88.600,153.490 82.871,147.080 79.001 C 145.171 77.848,140.545 75.439,140.241 75.439 C 140.171 75.439,139.519 75.168,138.791 74.837 C 132.465 71.957,120.843 70.347,112.657 71.216 M125.483 71.934 C 134.054 73.050,142.179 76.209,149.576 81.302 C 153.245 83.829,157.096 87.355,160.279 91.103 C 161.406 92.430,164.662 96.890,164.662 97.106 C 164.662 97.177,165.087 97.941,165.607 98.805 C 167.992 102.770,170.380 108.719,171.168 112.657 C 171.306 113.346,171.592 114.699,171.804 115.664 C 172.526 118.958,172.802 124.637,172.464 129.263 C 172.190 133.010,172.004 134.268,171.180 137.970 C 170.887 139.288,169.256 144.270,168.788 145.276 C 168.586 145.710,168.421 146.151,168.421 146.255 C 168.421 146.532,166.042 151.187,165.298 152.365 C 164.948 152.920,164.662 153.479,164.662 153.608 C 164.662 153.737,164.577 153.881,164.474 153.926 C 164.370 153.972,163.757 154.799,163.111 155.764 C 162.464 156.729,161.727 157.744,161.473 158.020 C 161.218 158.296,160.821 158.794,160.590 159.127 C 159.590 160.569,153.964 166.041,151.790 167.686 C 147.857 170.662,141.942 174.044,138.606 175.225 C 137.842 175.495,137.045 175.808,136.834 175.921 C 136.623 176.034,136.059 176.210,135.581 176.313 C 135.103 176.415,134.599 176.584,134.461 176.687 C 134.208 176.877,134.005 176.931,131.078 177.586 C 125.826 178.760,125.319 178.810,118.672 178.816 C 112.501 178.822,109.853 178.617,107.268 177.935 C 106.786 177.807,105.602 177.523,104.637 177.303 C 101.710 176.635,95.114 174.097,93.488 173.013 C 93.008 172.693,92.538 172.431,92.443 172.431 C 92.348 172.431,91.331 171.852,90.183 171.145 C 67.943 157.446,58.762 131.408,67.517 106.857 C 69.130 102.332,73.930 93.802,75.817 92.105 C 75.970 91.967,76.709 91.127,77.459 90.237 C 80.286 86.882,84.226 83.361,87.845 80.956 C 88.947 80.223,90.139 79.427,90.492 79.187 C 91.139 78.748,94.862 76.835,96.491 76.105 C 99.003 74.980,102.832 73.678,105.013 73.208 C 105.771 73.044,106.786 72.798,107.268 72.661 C 110.407 71.768,120.966 71.346,125.483 71.934 M278.822 88.742 C 274.556 89.339,271.078 91.673,269.518 94.987 C 269.162 95.746,268.741 96.637,268.583 96.968 C 268.411 97.327,268.298 98.893,268.301 100.852 C 268.310 106.767,270.250 109.046,277.345 111.478 C 282.790 113.345,283.648 113.900,283.868 115.702 C 284.222 118.596,281.055 120.222,277.082 119.187 C 275.773 118.846,273.215 117.704,272.935 117.336 C 271.911 115.989,270.649 115.841,270.113 117.006 C 269.872 117.530,268.983 119.228,268.138 120.780 C 266.367 124.033,266.301 123.745,269.173 125.280 C 272.886 127.265,275.471 127.888,279.950 127.879 C 289.095 127.861,294.486 123.129,294.486 115.121 C 294.486 109.341,291.687 106.242,284.222 103.758 C 279.502 102.188,278.697 101.620,278.697 99.864 C 278.697 96.724,283.693 95.997,287.652 98.561 C 288.235 98.939,288.818 99.248,288.947 99.248 C 289.211 99.248,292.732 92.426,292.732 91.914 C 292.732 90.709,284.308 88.295,280.827 88.502 C 280.551 88.519,279.649 88.627,278.822 88.742 M284.931 89.360 C 286.258 89.573,287.539 89.854,287.779 89.986 C 288.018 90.118,288.339 90.226,288.493 90.226 C 288.646 90.226,289.155 90.395,289.624 90.602 C 292.724 91.969,292.572 91.675,291.382 93.985 C 288.655 99.282,289.021 98.912,287.466 97.946 C 285.620 96.798,281.789 96.056,281.126 96.718 C 280.976 96.869,280.673 96.992,280.454 96.992 C 278.720 96.992,277.568 100.369,278.828 101.761 C 279.309 102.292,282.164 103.759,282.717 103.759 C 283.254 103.759,286.848 105.072,288.095 105.724 C 292.532 108.042,293.834 110.206,293.850 115.288 C 293.860 118.785,293.826 118.944,292.536 121.481 C 289.137 128.167,276.894 129.602,268.296 124.321 C 267.745 123.982,267.260 123.686,267.220 123.663 C 267.136 123.615,267.979 121.745,268.171 121.554 C 268.240 121.485,268.578 120.885,268.923 120.221 C 271.062 116.096,270.858 116.266,272.352 117.354 C 277.205 120.891,283.420 120.654,284.363 116.896 C 284.942 114.591,283.062 112.851,278.446 111.419 C 276.956 110.957,276.565 110.812,275.117 110.185 C 274.595 109.959,274.003 109.774,273.801 109.774 C 273.599 109.774,273.434 109.669,273.434 109.541 C 273.434 109.412,273.232 109.243,272.986 109.165 C 270.655 108.425,268.665 104.735,268.623 101.078 C 268.527 92.540,275.140 87.788,284.931 89.360 M200.554 89.772 C 200.080 90.246,200.118 126.395,200.593 126.789 C 200.839 126.993,203.859 127.055,211.307 127.008 L 221.679 126.942 221.748 122.774 L 221.816 118.606 220.410 118.430 C 219.636 118.333,217.237 118.277,215.078 118.305 C 212.919 118.333,210.956 118.343,210.714 118.326 C 210.324 118.299,210.276 117.980,210.276 115.414 L 210.276 112.531 215.489 112.531 C 221.828 112.531,221.303 112.907,221.303 108.366 C 221.303 103.514,221.934 104.010,215.767 104.010 C 209.666 104.010,210.206 104.346,210.327 100.627 L 210.401 98.371 216.040 98.234 C 219.142 98.158,221.710 98.073,221.748 98.046 C 221.786 98.018,221.786 96.106,221.748 93.797 L 221.679 89.599 211.268 89.534 C 203.380 89.484,200.784 89.542,200.554 89.772 M239.416 89.677 C 239.247 89.785,238.839 90.601,238.511 91.490 C 238.182 92.380,237.717 93.615,237.477 94.236 C 236.236 97.449,235.750 98.713,235.406 99.624 C 235.198 100.175,234.942 100.852,234.837 101.128 C 234.506 101.998,233.778 103.856,233.462 104.637 C 233.295 105.050,233.017 105.783,232.844 106.266 C 232.672 106.748,232.443 107.368,232.336 107.644 C 232.228 107.920,231.958 108.625,231.734 109.211 C 231.511 109.796,231.146 110.755,230.922 111.341 C 230.699 111.927,230.428 112.632,230.320 112.907 C 230.014 113.690,228.044 118.813,227.140 121.178 C 226.929 121.729,226.667 122.406,226.558 122.682 C 224.670 127.433,224.358 127.068,230.316 127.068 C 235.799 127.068,235.541 127.145,236.176 125.313 C 236.391 124.693,236.854 123.408,237.206 122.457 C 237.557 121.506,237.845 120.689,237.845 120.640 C 237.845 120.358,251.338 120.579,251.551 120.865 C 251.679 121.037,252.107 122.193,252.501 123.434 C 252.896 124.674,253.371 125.999,253.558 126.378 L 253.898 127.068 258.912 127.068 C 262.884 127.068,263.952 126.998,264.055 126.730 C 264.126 126.544,262.598 122.254,260.659 117.196 C 258.720 112.138,256.982 107.581,256.797 107.070 C 256.102 105.151,251.064 92.073,250.727 91.316 C 250.534 90.881,250.376 90.406,250.376 90.259 C 250.376 89.540,240.461 89.013,239.416 89.677 M296.086 89.834 C 296.005 90.048,297.466 92.324,299.666 95.410 C 301.710 98.278,303.460 100.794,303.553 101.001 C 303.646 101.209,303.984 101.685,304.305 102.059 C 304.625 102.433,305.261 103.279,305.718 103.938 C 306.174 104.598,307.161 106.014,307.911 107.085 L 309.273 109.032 309.277 117.737 C 309.279 122.524,309.372 126.585,309.483 126.760 C 309.638 127.004,310.802 127.063,314.429 127.011 L 319.173 126.942 319.298 117.920 L 319.424 108.897 324.605 101.629 C 327.455 97.632,330.477 93.412,331.321 92.253 C 332.165 91.094,332.797 89.994,332.726 89.809 C 332.546 89.339,321.848 89.318,321.250 89.787 C 320.871 90.084,317.922 94.291,315.714 97.682 C 314.527 99.506,314.276 99.577,313.505 98.308 C 313.191 97.791,312.866 97.312,312.784 97.243 C 312.701 97.174,311.798 95.877,310.778 94.361 C 309.757 92.845,308.656 91.212,308.331 90.732 C 308.005 90.253,307.605 89.775,307.441 89.671 C 306.835 89.286,296.238 89.438,296.086 89.834 M220.996 90.135 C 221.561 90.286,221.566 90.324,221.498 93.953 L 221.429 97.619 215.789 97.744 L 210.150 97.870 210.080 101.065 C 210.026 103.525,210.084 104.264,210.331 104.275 C 210.507 104.284,212.741 104.278,215.296 104.262 C 221.379 104.225,220.802 103.802,220.802 108.297 L 220.802 112.030 215.810 112.030 C 209.437 112.030,210.025 111.688,210.025 115.390 C 210.025 119.354,209.516 119.048,216.097 119.048 L 221.567 119.048 221.498 122.744 L 221.429 126.441 211.153 126.441 L 200.877 126.441 200.813 108.412 C 200.762 94.154,200.814 90.341,201.063 90.183 C 201.428 89.951,220.143 89.906,220.996 90.135 M249.482 90.219 C 249.836 90.354,250.125 90.591,250.125 90.745 C 250.125 90.900,250.279 91.382,250.466 91.817 C 251.133 93.362,251.431 94.125,251.803 95.238 C 252.010 95.858,252.325 96.704,252.502 97.118 C 252.679 97.531,252.966 98.264,253.141 98.747 C 253.316 99.229,253.598 99.962,253.768 100.376 C 253.938 100.789,254.219 101.523,254.394 102.005 C 254.569 102.487,254.853 103.221,255.026 103.634 C 255.200 104.048,255.540 104.950,255.782 105.639 C 256.025 106.328,256.317 106.999,256.432 107.130 C 256.547 107.261,256.642 107.526,256.642 107.719 C 256.642 107.912,256.796 108.425,256.984 108.859 C 257.173 109.294,257.622 110.411,257.983 111.343 C 259.205 114.499,259.944 116.413,260.329 117.419 C 260.539 117.970,260.800 118.647,260.907 118.922 C 261.014 119.198,261.243 119.818,261.416 120.301 C 261.588 120.783,261.866 121.516,262.034 121.930 C 262.201 122.343,262.534 123.189,262.774 123.810 C 263.013 124.430,263.311 125.133,263.434 125.373 C 264.040 126.546,263.962 126.566,258.901 126.566 L 254.142 126.566 253.740 125.627 C 253.519 125.110,253.082 123.890,252.768 122.916 C 251.741 119.729,252.638 120.050,244.767 120.050 C 236.751 120.050,237.571 119.709,236.343 123.559 C 235.881 125.006,235.381 126.273,235.233 126.375 C 234.729 126.718,225.814 126.603,225.818 126.253 C 225.823 125.837,226.428 124.115,226.645 123.898 C 226.740 123.803,226.817 123.564,226.817 123.367 C 226.817 123.170,226.971 122.653,227.159 122.218 C 227.580 121.247,228.142 119.813,229.140 117.168 C 229.349 116.617,229.823 115.376,230.196 114.411 C 230.568 113.446,231.045 112.206,231.256 111.654 C 231.908 109.947,232.017 109.677,232.431 108.734 C 232.651 108.231,232.832 107.694,232.832 107.540 C 232.832 107.387,232.933 107.066,233.057 106.826 C 233.283 106.388,233.637 105.490,234.905 102.130 C 235.275 101.149,235.933 99.444,237.247 96.053 C 237.608 95.122,238.172 93.705,238.501 92.903 C 238.829 92.102,239.098 91.321,239.098 91.169 C 239.098 90.048,247.107 89.316,249.482 90.219 M307.527 90.485 C 307.808 90.765,308.424 91.599,308.896 92.337 C 309.747 93.667,312.688 97.918,313.410 98.860 C 313.616 99.130,313.784 99.440,313.784 99.550 C 313.784 100.175,314.966 99.657,315.479 98.808 C 316.457 97.188,316.662 96.871,316.816 96.742 C 316.898 96.673,317.619 95.658,318.417 94.486 C 319.216 93.315,320.258 91.820,320.733 91.165 L 321.597 89.975 326.838 89.975 C 329.949 89.975,332.080 90.071,332.080 90.211 C 332.080 90.392,325.415 99.919,322.620 103.733 C 322.167 104.351,321.916 104.718,320.750 106.462 C 320.376 107.020,319.946 107.553,319.794 107.647 C 319.157 108.041,319.037 109.455,319.021 116.759 C 319.012 120.981,318.928 124.887,318.834 125.439 L 318.663 126.441 314.281 126.441 L 309.900 126.441 309.774 117.544 L 309.649 108.647 306.591 104.386 C 304.910 102.043,303.321 99.843,303.061 99.499 C 302.801 99.154,301.936 97.914,301.140 96.742 C 300.344 95.570,299.592 94.574,299.470 94.528 C 299.348 94.482,299.248 94.339,299.248 94.211 C 299.248 94.082,298.684 93.202,297.995 92.254 C 297.306 91.307,296.742 90.406,296.742 90.253 C 296.742 89.670,306.931 89.889,307.527 90.485 M244.245 101.239 C 244.164 101.368,243.881 102.130,243.615 102.930 C 243.349 103.731,242.780 105.345,242.351 106.516 C 241.921 107.688,241.512 108.872,241.441 109.148 C 241.370 109.424,241.209 109.875,241.084 110.150 C 239.649 113.304,239.625 113.283,244.634 113.283 C 249.760 113.283,249.486 113.648,247.844 109.019 C 247.136 107.022,246.427 104.973,246.269 104.465 C 246.111 103.957,245.899 103.459,245.798 103.358 C 245.697 103.257,245.614 102.937,245.614 102.646 C 245.614 101.663,244.616 100.638,244.245 101.239 M245.282 103.027 C 245.758 104.414,247.619 109.563,248.038 110.652 C 248.592 112.090,248.599 112.912,248.058 112.886 C 247.816 112.875,246.084 112.847,244.207 112.824 L 240.795 112.782 240.916 112.093 C 240.983 111.714,241.511 110.107,242.089 108.521 C 242.983 106.071,243.833 103.627,244.255 102.297 C 244.433 101.737,244.971 102.119,245.282 103.027 M231.579 134.195 C 230.184 134.494,230.003 134.556,228.183 135.359 C 217.782 139.947,217.731 155.292,228.100 160.370 C 241.729 167.046,255.781 152.373,247.545 140.066 C 245.991 137.743,244.010 136.243,240.476 134.713 C 238.492 133.854,234.304 133.610,231.579 134.195 M301.107 134.207 C 296.736 135.588,294.559 138.636,294.783 143.062 C 294.980 146.958,296.548 148.621,301.629 150.323 C 305.476 151.612,306.438 152.457,305.876 154.055 C 305.065 156.361,301.765 156.470,298.291 154.304 C 296.458 153.161,296.671 153.034,295.022 156.251 C 293.558 159.106,293.552 159.072,295.785 160.196 C 303.121 163.888,311.699 161.502,313.240 155.340 C 314.625 149.800,312.137 146.468,304.938 144.223 C 303.161 143.669,302.256 142.889,302.256 141.910 C 302.256 139.672,306.061 139.229,308.801 141.150 C 309.488 141.631,309.857 141.250,311.118 138.756 C 312.557 135.910,312.552 135.880,310.495 135.125 C 307.065 133.865,303.342 133.501,301.107 134.207 M238.912 134.707 C 241.244 135.248,244.784 137.185,245.865 138.512 C 249.523 143.005,250.466 147.087,248.954 151.880 C 248.584 153.051,248.189 154.048,248.076 154.094 C 247.962 154.140,247.870 154.289,247.870 154.426 C 247.870 154.955,245.511 157.705,244.278 158.612 C 236.403 164.408,224.389 161.253,221.486 152.628 C 217.809 141.702,227.243 132.001,238.912 134.707 M309.148 135.078 C 309.975 135.374,310.841 135.678,311.073 135.753 C 311.854 136.005,311.784 136.623,310.755 138.554 C 309.433 141.033,309.482 140.996,308.355 140.402 C 305.125 138.699,302.052 139.440,301.958 141.946 C 301.906 143.331,302.896 144.093,305.890 144.971 C 311.102 146.499,313.178 148.957,312.979 153.367 C 312.643 160.850,304.430 163.933,295.903 159.775 C 294.076 158.885,294.037 158.774,294.973 157.116 C 295.392 156.373,295.977 155.295,296.272 154.721 L 296.809 153.677 297.339 154.176 C 300.600 157.245,306.266 156.765,306.266 153.421 C 306.266 151.809,305.619 151.279,302.256 150.139 C 296.394 148.152,295.091 146.668,295.280 142.190 C 295.548 135.816,301.991 132.512,309.148 135.078 M200.523 134.936 C 200.333 135.165,200.257 136.183,200.304 137.881 L 200.376 140.476 203.133 140.602 L 205.890 140.727 206.015 150.877 L 206.140 161.028 209.649 161.028 L 213.158 161.028 213.283 150.877 L 213.409 140.727 216.165 140.602 L 218.922 140.476 218.994 137.881 C 219.094 134.261,220.017 134.586,209.649 134.586 C 202.393 134.586,200.761 134.649,200.523 134.936 M266.067 134.983 C 265.745 135.822,265.909 150.706,266.265 152.882 C 267.322 159.358,270.454 161.768,277.820 161.776 C 284.546 161.782,287.549 159.810,289.087 154.374 C 289.418 153.204,289.470 151.532,289.414 143.847 L 289.348 134.712 285.965 134.712 L 282.581 134.712 282.434 143.233 C 282.231 154.924,282.002 155.522,277.715 155.508 C 273.612 155.494,273.450 155.057,273.427 143.954 C 273.415 138.135,273.320 135.127,273.140 134.911 C 272.706 134.388,266.270 134.454,266.067 134.983 M317.667 135.150 C 317.592 135.461,317.562 141.410,317.600 148.371 L 317.669 161.028 325.251 161.094 C 332.347 161.156,332.833 161.132,332.852 160.718 C 332.938 158.775,332.816 155.523,332.650 155.357 C 332.537 155.244,330.756 155.121,328.691 155.082 L 324.937 155.013 324.865 152.951 L 324.792 150.890 328.624 150.821 L 332.456 150.752 332.456 147.870 L 332.456 144.987 329.198 144.926 C 324.499 144.838,324.777 144.983,324.864 142.662 L 324.937 140.727 328.885 140.658 C 331.056 140.620,332.842 140.507,332.855 140.407 C 332.996 139.264,333.072 135.584,332.964 135.150 L 332.823 134.586 325.313 134.586 L 317.804 134.586 317.667 135.150 M218.546 137.323 C 218.546 140.491,218.673 140.350,215.825 140.355 C 214.496 140.357,213.269 140.447,213.098 140.556 C 212.862 140.706,212.772 143.138,212.722 150.765 L 212.657 160.777 209.586 160.847 L 206.516 160.918 206.516 150.786 C 206.516 139.118,206.838 140.279,203.623 140.338 C 200.657 140.392,200.752 140.484,200.752 137.567 L 200.752 135.088 209.649 135.088 L 218.546 135.088 218.546 137.323 M272.689 135.902 C 272.813 149.221,272.883 151.623,273.175 152.707 C 274.212 156.552,279.596 157.410,281.848 154.089 L 282.581 153.008 282.659 144.040 L 282.736 135.073 285.917 135.143 L 289.098 135.213 289.164 143.101 C 289.266 155.174,288.483 158.062,284.580 160.025 C 284.032 160.301,283.528 160.586,283.459 160.660 C 283.125 161.015,280.333 161.495,278.268 161.551 C 274.366 161.658,271.022 160.615,269.298 158.755 C 268.221 157.592,268.091 157.395,267.576 156.140 C 267.321 155.520,266.992 154.731,266.844 154.386 C 266.676 153.994,266.536 150.266,266.469 144.424 L 266.362 135.088 269.522 135.088 L 272.682 135.088 272.689 135.902 M332.581 137.589 C 332.581 140.573,332.983 140.328,327.945 140.415 L 324.436 140.476 324.363 142.415 C 324.250 145.418,324.255 145.422,327.812 145.218 C 332.271 144.961,332.080 144.837,332.080 147.993 L 332.080 150.614 328.258 150.683 L 324.436 150.752 324.363 152.844 C 324.262 155.737,324.109 155.639,328.736 155.639 L 332.599 155.639 332.528 158.208 L 332.456 160.777 325.439 160.844 C 319.064 160.905,318.392 160.871,318.108 160.483 C 317.774 160.026,317.630 137.476,317.951 135.871 L 318.108 135.088 325.345 135.088 L 332.581 135.088 332.581 137.589 M233.333 140.498 C 231.095 141.333,230.228 141.886,229.165 143.155 C 225.060 148.055,228.542 155.388,234.974 155.388 C 243.580 155.388,245.863 144.337,237.970 140.883 C 237.166 140.531,233.958 140.265,233.333 140.498 M238.346 141.528 C 241.853 143.104,243.437 147.608,241.706 151.081 C 239.189 156.132,231.418 156.290,228.694 151.346 C 225.359 145.292,231.905 138.634,238.346 141.528 " stroke="none" fill="#98c6e3" fill-rule="evenodd"></path><path id="path4" d="M123.491 81.516 C 122.750 82.077,122.362 86.318,122.538 91.923 C 122.584 93.355,124.568 93.152,125.021 91.669 C 125.475 90.180,125.579 82.339,125.153 81.731 C 124.736 81.135,124.104 81.053,123.491 81.516 M110.075 86.015 C 109.211 86.879,109.717 87.768,113.115 91.353 C 113.376 91.629,114.036 92.439,114.581 93.152 C 115.800 94.748,116.640 95.331,117.435 95.131 C 118.805 94.787,118.642 93.230,117.076 91.719 C 116.713 91.369,115.965 90.529,115.414 89.852 C 112.345 86.085,110.984 85.107,110.075 86.015 M135.920 87.657 C 135.487 87.898,134.630 88.546,134.017 89.098 C 133.404 89.649,132.131 90.777,131.188 91.604 C 130.245 92.431,129.270 93.305,129.022 93.546 C 128.138 94.407,128.699 95.990,129.887 95.990 C 130.802 95.990,138.095 89.415,138.095 88.590 C 138.095 87.352,137.177 86.958,135.920 87.657 M143.436 90.980 C 143.135 91.101,141.185 92.588,139.103 94.284 C 135.168 97.492,134.509 98.013,131.664 100.173 C 130.721 100.889,129.442 101.920,128.822 102.465 C 128.202 103.009,126.736 104.207,125.564 105.126 C 124.392 106.045,123.264 106.933,123.058 107.099 C 122.851 107.265,122.175 107.794,121.556 108.274 C 120.937 108.755,120.317 109.282,120.178 109.446 C 119.878 109.799,116.846 112.030,116.666 112.030 C 116.424 112.030,116.546 110.962,116.947 109.584 C 118.554 104.055,114.514 96.456,109.932 96.390 C 106.745 96.343,106.029 97.753,107.308 101.560 C 108.261 104.397,108.383 107.300,107.641 109.524 C 107.098 111.153,106.874 111.527,104.863 114.160 C 102.583 117.145,99.505 122.015,96.903 126.752 C 96.128 128.164,94.687 130.533,93.700 132.016 C 91.786 134.893,92.108 134.604,85.338 139.505 C 84.098 140.403,82.801 141.358,82.456 141.628 C 82.112 141.898,81.326 142.456,80.710 142.868 C 79.088 143.952,79.070 144.099,80.403 145.507 C 81.050 146.190,83.321 148.608,85.450 150.881 C 87.579 153.153,90.349 156.084,91.605 157.393 C 92.861 158.703,94.634 160.564,95.544 161.529 C 100.223 166.488,101.225 167.460,101.571 167.380 C 101.777 167.332,104.435 164.874,107.477 161.916 C 113.460 156.101,113.706 155.921,116.701 155.175 C 120.751 154.167,125.485 150.841,134.664 142.553 C 136.154 141.208,138.805 138.934,140.554 137.501 C 142.303 136.067,143.991 134.618,144.304 134.279 C 146.433 131.982,145.024 128.026,141.792 127.228 C 140.854 126.997,140.925 126.591,142.105 125.439 C 144.493 123.107,142.657 118.306,139.373 118.292 C 137.804 118.285,137.676 117.977,138.789 116.887 C 140.583 115.131,141.082 113.734,140.551 111.960 C 140.014 110.168,138.688 109.203,135.996 108.645 L 135.275 108.496 135.871 107.852 C 136.198 107.499,137.329 106.549,138.384 105.742 C 139.439 104.935,141.243 103.480,142.394 102.508 C 149.209 96.751,149.371 96.576,149.372 94.937 C 149.375 92.034,146.153 89.885,143.436 90.980 M146.221 92.017 C 147.098 92.416,147.689 94.253,147.376 95.607 C 147.249 96.155,147.192 96.649,147.248 96.705 C 147.305 96.762,146.942 97.105,146.441 97.468 L 145.531 98.128 144.788 97.498 C 142.029 95.157,141.507 94.240,142.441 93.374 C 142.808 93.034,143.108 92.638,143.108 92.493 C 143.108 92.349,143.496 92.231,143.970 92.231 C 144.444 92.231,144.902 92.118,144.987 91.980 C 145.188 91.656,145.447 91.664,146.221 92.017 " stroke="none" fill="#fbc8ae" fill-rule="evenodd"></path></g></svg>