<?xml version="1.0" standalone="no"?>
<!DOCTYPE svg PUBLIC "-//W3C//DTD SVG 20010904//EN"
 "http://www.w3.org/TR/2001/REC-SVG-20010904/DTD/svg10.dtd">
<svg version="1.0" xmlns="http://www.w3.org/2000/svg"
 width="300.000000pt" height="168.000000pt" viewBox="0 0 300.000000 168.000000"
 preserveAspectRatio="xMidYMid meet">
<metadata>
Created by potrace 1.10, written by Peter Selinger 2001-2011
</metadata>
<g transform="translate(0.000000,168.000000) scale(0.100000,-0.100000)"
fill="#000000" stroke="none">
<path d="M2695 1500 c-16 -4 -142 -37 -280 -74 -137 -37 -267 -72 -288 -77
-27 -7 -37 -14 -33 -25 3 -8 1 -14 -3 -14 -5 0 -11 5 -13 12 -3 9 -27 6 -89
-11 -108 -30 -111 -31 -94 -55 10 -13 20 -16 32 -11 10 5 25 9 33 11 8 1 79
20 158 40 104 28 142 42 142 54 0 11 2 12 8 2 7 -10 28 -7 103 13 108 30 120
34 172 47 21 5 35 13 32 18 -3 5 -1 11 5 15 5 3 10 1 10 -4 0 -6 12 -11 28
-11 21 0 24 2 12 10 -18 12 -19 11 48 13 39 2 52 -1 52 -12 0 -8 12 -30 27
-49 19 -26 22 -34 10 -29 -9 3 -17 4 -17 2 0 -5 76 -285 106 -394 11 -39 18
-50 24 -41 18 29 15 4 -3 -30 -13 -24 -17 -28 -14 -12 5 21 3 23 -16 18 -186
-48 -227 -62 -222 -74 2 -7 1 -10 -5 -7 -5 3 -14 -4 -20 -16 -10 -18 -9 -20 7
-16 16 5 138 37 250 67 72 18 72 21 -2 298 -37 136 -71 252 -77 259 -5 7 -7
17 -3 22 10 17 -26 73 -45 70 -3 -1 -18 -4 -35 -9z"/>
<path d="M2573 1279 c-18 -5 -33 -12 -33 -14 0 -3 16 -11 35 -19 19 -8 38 -22
41 -31 3 -8 12 -15 18 -15 9 0 10 11 2 45 -11 48 -13 48 -63 34z"/>
<path d="M1775 1255 c-44 -12 -99 -28 -122 -34 -34 -9 -41 -15 -36 -29 5 -14
4 -15 -8 -6 -8 6 -25 10 -39 9 -14 -2 -31 -4 -38 -4 -7 -1 -10 -5 -7 -11 3 -5
0 -7 -8 -4 -8 3 -33 0 -56 -6 -34 -9 -41 -15 -41 -36 0 -17 5 -24 13 -22 6 3
111 31 232 63 121 32 221 59 223 61 6 4 -18 44 -26 43 -4 -1 -43 -12 -87 -24z"/>
<path d="M2460 1247 c-47 -14 -47 -14 -16 -38 14 -11 24 -24 21 -28 -2 -5 7
-50 21 -101 14 -51 23 -103 20 -115 -8 -32 0 -35 53 -17 l49 15 -22 80 c-13
46 -28 83 -37 85 -7 3 -20 12 -26 21 -11 14 -13 13 -19 -6 -7 -26 -24 -31 -24
-8 0 8 5 15 10 15 6 0 10 9 10 20 0 11 5 20 12 20 6 0 9 -3 5 -6 -3 -3 3 -15
13 -27 28 -30 32 -18 13 46 -17 61 -21 63 -83 44z m90 -212 c0 -12 5 -26 12
-33 9 -9 9 -12 1 -12 -16 0 -25 17 -34 64 -6 37 -6 39 7 21 8 -10 14 -28 14
-40z"/>
<path d="M2360 1220 c0 -5 -13 -10 -30 -10 -40 0 -38 -13 6 -33 20 -10 38 -27
41 -38 5 -18 24 -23 25 -6 1 22 -24 97 -32 97 -6 0 -10 -4 -10 -10z"/>
<path d="M2252 1185 c-27 -23 -32 -34 -32 -70 0 -58 34 -99 96 -114 53 -14 64
-9 41 17 -10 10 -15 22 -12 25 3 4 2 5 -2 2 -3 -3 -15 3 -26 12 -19 17 -19 17
-13 -4 4 -14 3 -23 -3 -23 -16 0 -24 21 -12 33 8 8 5 18 -11 36 -16 18 -13 17
12 -5 19 -17 41 -29 49 -27 7 3 17 -1 22 -8 6 -11 11 -11 21 -1 6 6 16 12 21
12 5 0 -2 -9 -17 -21 -22 -17 -25 -24 -14 -36 18 -22 21 -63 7 -90 -16 -31 -6
-38 24 -18 84 55 45 182 -62 200 -52 9 -77 35 -61 65 19 36 6 44 -28 15z"/>
<path d="M2592 1173 c0 -10 -2 -25 -5 -33 -7 -15 39 -77 49 -67 11 10 -19 117
-32 117 -7 0 -12 -8 -12 -17z"/>
<path d="M2123 1159 c-18 -5 -33 -11 -33 -14 0 -2 11 -15 24 -28 13 -13 27
-42 31 -65 4 -26 11 -40 17 -35 7 4 9 -2 5 -16 -3 -12 -1 -37 5 -57 7 -28 6
-41 -6 -59 -9 -14 -16 -32 -16 -42 1 -15 5 -13 25 10 31 35 31 59 -1 176 -18
66 -22 97 -15 104 13 13 15 37 4 36 -5 0 -23 -5 -40 -10z"/>
<path d="M1368 1145 c-3 -3 -17 -8 -30 -10 -14 -3 -135 -35 -269 -71 -134 -36
-300 -80 -369 -98 -325 -86 -485 -131 -488 -138 -2 -5 -8 -6 -13 -3 -10 7 -88
-14 -106 -28 -7 -5 -13 -20 -13 -33 0 -35 23 -114 33 -114 4 0 6 -4 2 -10 -3
-5 15 -85 40 -177 26 -92 52 -192 59 -221 8 -29 17 -56 20 -59 13 -14 43 -13
109 3 49 12 67 21 67 33 0 12 2 13 9 3 6 -11 20 -10 74 4 57 16 68 22 77 47 7
22 7 28 -3 24 -7 -2 -57 -17 -112 -31 -55 -15 -107 -30 -115 -33 -20 -8 -27
-10 -45 -12 -8 0 -15 -7 -15 -15 0 -8 -4 -17 -9 -20 -5 -3 -9 9 -9 27 1 17
-30 145 -67 282 -78 290 -77 287 -64 279 14 -8 110 16 103 27 -3 5 1 6 9 3 8
-3 94 16 191 42 157 42 176 49 171 65 -4 11 -2 19 4 19 6 0 11 -7 11 -15 0 -8
4 -15 10 -15 12 0 229 58 250 67 8 3 17 6 20 5 3 0 118 30 255 67 216 58 250
70 250 87 0 18 -25 31 -37 19z"/>
<path d="M1983 1121 c-51 -15 -67 -33 -40 -44 14 -5 23 -34 52 -150 20 -77 48
-107 101 -107 37 0 47 23 19 44 -22 16 -79 234 -66 250 6 7 8 16 4 19 -8 8 -5
9 -70 -12z m61 -126 c-9 -23 -19 -18 -32 18 -18 49 -14 55 13 24 13 -15 22
-34 19 -42z"/>
<path d="M2660 1052 c0 -16 -9 -38 -21 -51 -27 -28 -21 -34 26 -25 37 7 37 7
31 47 -4 22 -9 44 -12 49 -11 17 -24 7 -24 -20z"/>
<path d="M1690 1040 c0 -5 7 -13 15 -17 8 -5 26 -53 41 -107 17 -66 33 -106
47 -118 17 -14 18 -17 5 -12 -21 7 -24 -9 -5 -25 11 -8 18 -6 33 10 15 16 19
36 19 88 0 79 -25 134 -75 169 -33 22 -80 30 -80 12z"/>
<path d="M1638 1023 c-28 -32 -38 -61 -38 -105 0 -65 9 -91 26 -77 11 9 14 8
14 -5 0 -9 -5 -16 -11 -16 -5 0 -2 -14 8 -30 16 -28 83 -70 111 -70 17 0 15
21 -4 35 -21 15 -76 221 -68 258 7 32 -14 37 -38 10z"/>
<path d="M1505 989 c-4 -6 2 -21 14 -33 12 -12 21 -27 21 -33 0 -6 7 -16 15
-23 12 -10 15 -9 15 6 0 45 -21 94 -40 94 -10 0 -22 -5 -25 -11z"/>
<path d="M2250 983 c1 -31 29 -108 40 -111 13 -5 13 -3 1 12 -12 14 -12 16 4
10 13 -5 16 -4 11 4 -10 17 3 15 21 -4 12 -12 18 -13 27 -3 8 8 7 13 -4 17 -8
3 -32 22 -52 43 -37 39 -48 46 -48 32z"/>
<path d="M1423 973 c-13 -2 -23 -10 -23 -16 0 -10 55 -211 77 -279 6 -21 5
-21 57 -6 52 14 67 27 41 34 -16 4 -27 30 -56 137 -37 140 -38 142 -96 130z
m45 -95 c11 -24 25 -65 32 -93 6 -27 14 -56 16 -62 2 -7 -1 -13 -6 -13 -11 0
-19 25 -40 124 -4 21 -12 41 -17 45 -14 9 -24 41 -13 41 5 0 18 -19 28 -42z"/>
<path d="M1347 953 c-15 -4 -17 -11 -11 -36 17 -81 45 -106 43 -39 -1 20 0 42
1 47 4 17 0 35 -7 34 -5 -1 -16 -3 -26 -6z"/>
<path d="M1163 903 c-25 -5 -32 -33 -8 -33 11 0 15 -12 15 -49 0 -28 4 -52 9
-55 13 -8 19 52 7 64 -7 7 -6 10 2 10 7 0 12 9 12 19 0 11 5 23 10 26 6 3 10
10 10 16 0 9 -17 10 -57 2z"/>
<path d="M1033 867 c-25 -5 -43 -16 -43 -23 0 -8 3 -14 8 -14 4 0 21 -20 37
-45 17 -24 33 -45 36 -45 4 0 10 -8 13 -17 8 -22 28 -56 43 -75 13 -15 7 -58
-8 -58 -5 0 -9 -7 -9 -15 0 -19 2 -19 72 3 67 21 80 31 51 38 -16 5 -24 19
-33 57 -7 29 -24 68 -39 87 -47 61 -61 89 -55 104 7 18 -8 19 -73 3z m144
-159 c-1 -13 -6 -26 -12 -30 -6 -5 -5 -12 3 -20 15 -15 16 -48 1 -48 -6 0 -9
7 -5 15 3 8 -2 19 -12 24 -9 6 -13 11 -8 11 5 0 2 8 -5 17 -12 15 -12 16 3 10
13 -4 15 -2 11 10 -3 8 0 19 8 24 19 12 19 12 16 -13z"/>
<path d="M938 838 c-3 -7 -17 -12 -31 -10 -33 2 -35 -15 -3 -27 13 -5 32 -22
44 -38 28 -39 37 -24 21 36 -13 50 -23 63 -31 39z"/>
<path d="M2490 812 c-52 -15 -101 -31 -107 -35 -7 -5 -13 -6 -13 -4 0 9 -174
-40 -177 -49 -1 -5 1 -15 6 -23 14 -21 381 76 381 102 0 9 5 17 10 17 6 0 10
5 10 10 0 13 3 13 -110 -18z"/>
<path d="M828 809 c-25 -14 -38 -72 -27 -115 14 -49 73 -81 164 -89 12 -1 9
-31 -7 -62 -17 -35 -1 -40 31 -9 29 28 45 72 33 91 -3 5 -7 18 -7 27 -2 18
-33 58 -44 56 -3 -1 -13 1 -21 5 -49 18 -83 25 -98 21 -13 -5 -14 -4 -3 4 9 6
9 11 2 13 -7 3 -6 13 4 33 8 15 15 30 15 32 0 7 -25 3 -42 -7z m92 -126 c14
-7 31 -13 38 -13 8 0 12 -6 9 -12 -2 -7 -15 -12 -28 -11 -24 3 -99 24 -99 29
0 32 27 35 80 7z"/>
<path d="M640 763 c-14 -3 -29 -8 -33 -12 -11 -11 14 -62 26 -54 6 3 7 1 3 -5
-4 -6 7 -38 24 -71 36 -72 36 -71 10 -71 -12 0 -20 -7 -20 -16 0 -12 7 -14 29
-9 24 5 30 2 36 -14 3 -12 3 -25 0 -31 -14 -23 8 -27 60 -11 62 19 74 28 53
36 -9 4 -44 64 -79 136 -34 71 -68 128 -73 128 -6 -1 -22 -4 -36 -6z m65 -110
c10 -21 24 -54 32 -73 8 -19 19 -43 24 -52 6 -12 6 -18 -1 -18 -5 0 -10 5 -10
10 0 6 -7 10 -16 10 -9 0 -14 6 -11 13 3 8 -5 34 -18 59 -12 24 -26 54 -29 66
-12 37 11 25 29 -15z"/>
<path d="M450 711 c-31 -9 -33 -35 -2 -39 12 -2 30 -15 39 -28 23 -35 34 -17
20 34 -11 43 -14 45 -57 33z"/>
<path d="M2043 692 c-51 -13 -90 -29 -87 -33 3 -5 -2 -6 -10 -3 -8 3 -50 -4
-93 -16 -43 -12 -127 -35 -186 -50 -60 -16 -111 -31 -114 -33 -3 -3 -2 -14 1
-25 6 -19 9 -19 114 10 59 16 159 42 222 59 63 16 122 33 130 36 8 3 22 7 30
8 8 1 24 4 35 8 11 3 39 11 63 17 38 10 41 13 32 30 -13 24 -21 24 -137 -8z"/>
<path d="M338 680 c-47 -14 -53 -21 -31 -39 25 -20 85 -235 70 -250 -21 -21 4
-29 50 -15 25 8 48 15 49 17 2 2 -12 57 -30 122 -18 66 -36 132 -40 148 -7 28
-20 32 -68 17z m52 -103 c8 -23 18 -47 22 -54 5 -6 5 -14 -2 -18 -11 -7 -14
-1 -28 55 -5 19 -14 34 -20 33 -6 -2 -9 3 -6 11 3 8 1 17 -5 21 -6 3 -11 11
-11 17 0 24 38 -25 50 -65z"/>
<path d="M611 575 c-1 -67 -5 -115 -12 -122 -20 -20 -1 -32 32 -23 43 13 46
18 21 36 -19 13 -22 25 -23 97 0 45 -4 91 -9 102 -6 13 -9 -19 -9 -90z"/>
<path d="M470 602 c0 -10 -4 -22 -10 -28 -6 -6 -2 -21 13 -42 23 -33 54 -45
43 -16 -4 9 -11 36 -17 60 -11 44 -29 60 -29 26z"/>
<path d="M833 580 c3 -19 10 -47 16 -62 10 -26 12 -26 37 -13 15 7 34 11 43 9
10 -3 9 0 -4 8 -11 7 -37 31 -59 53 l-39 40 6 -35z"/>
<path d="M1380 514 c-92 -25 -129 -39 -142 -56 -15 -19 -18 -20 -18 -5 0 9 -4
17 -10 17 -5 0 -10 -8 -10 -17 0 -13 -3 -15 -8 -5 -7 10 -35 5 -130 -20 -104
-28 -122 -35 -122 -52 0 -18 -1 -18 -13 -3 -11 15 -24 13 -162 -25 -140 -38
-185 -60 -185 -90 0 -11 4 -10 91 15 45 13 74 27 72 34 -2 6 1 14 6 18 6 3 11
-1 11 -9 0 -9 3 -16 8 -16 30 2 257 70 260 78 2 6 10 8 17 5 8 -3 123 24 255
59 223 59 240 65 240 86 0 28 -6 28 -160 -14z"/>
<path d="M537 503 c-4 -3 -7 -15 -7 -27 0 -11 -10 -30 -22 -43 -27 -29 -20
-36 26 -28 38 8 41 15 30 74 -6 30 -14 38 -27 24z"/>
</g>
</svg>
